<svg width="13" height="22" viewBox="0 0 13 22" fill="none" xmlns="http://www.w3.org/2000/svg">
<path d="M3.82031 5.26112C3.82031 4.83857 4.16275 4.49609 4.58525 4.49609C5.00775 4.49609 5.35018 4.83857 5.35018 5.26112C5.35018 5.68366 5.00775 6.02614 4.58525 6.02614C4.16275 6.02614 3.82031 5.68366 3.82031 5.26112Z" fill="#0F5F62"/>
<path d="M7.64844 5.26112C7.64844 4.83857 7.99087 4.49609 8.41337 4.49609C8.83587 4.49609 9.17831 4.83857 9.17831 5.26112C9.17831 5.68366 8.83587 6.02614 8.41337 6.02614C7.99087 6.02614 7.64844 5.68366 7.64844 5.26112Z" fill="#0F5F62"/>
<path d="M6.25362 15.3477C4.55775 16.1652 2.69284 16.6599 0.730777 16.779C0.506906 15.8755 0.378906 14.8484 0.378906 13.6758C0.378906 12.9723 0.450555 12.2911 0.579829 11.6406C2.13341 13.3158 4.40222 14.6071 6.25362 15.3477Z" fill="#0F5F62"/>
<path d="M12.6173 13.6776C12.6173 19.2388 9.87752 21.7104 6.49778 21.7104C4.14586 21.7104 2.10654 20.5093 1.08203 17.9069C5.64309 17.555 9.70057 15.3252 12.4309 11.7266C12.55 12.3518 12.6173 13.0042 12.6173 13.6776Z" fill="#0F5F62"/>
<path d="M0.945312 10.3018C1.12176 9.80253 1.33798 9.33382 1.58556 8.89648C2.70135 10.4013 4.48493 11.3826 6.49773 11.3826C8.51053 11.3826 10.2939 10.4013 11.4099 8.89674C11.6552 9.33025 11.8706 9.79386 12.0461 10.2883C10.8568 12.0657 9.34253 13.53 7.59439 14.615C5.64228 13.9903 2.55168 12.4021 0.945312 10.3018Z" fill="#0F5F62"/>
<path d="M6.49552 10.2344C9.23706 10.2344 11.4676 8.00355 11.4676 5.26171C11.4676 2.51987 9.23706 0.289062 6.49552 0.289062C3.75399 0.289062 1.52344 2.51987 1.52344 5.26171C1.52344 8.00355 3.75399 10.2344 6.49552 10.2344ZM5.32135 1.64035C5.01053 2.7022 5.42665 4.12463 6.49527 4.24984C7.05852 4.31589 7.29106 3.44198 6.77677 3.176C6.65616 3.09542 6.56182 2.99036 6.49348 2.87178C6.10847 2.20315 6.83133 1.39401 7.57179 1.61077C9.15674 2.07488 10.3202 3.52817 10.3202 5.26171C10.3202 7.64374 8.13147 9.52442 5.65996 8.99783C4.19638 8.68595 3.02628 7.48436 2.74351 6.01475C2.35543 3.99764 3.56684 2.21156 5.32135 1.64035Z" fill="#0F5F62"/>
</svg>
