<svg width="25" height="24" viewBox="0 0 25 24" fill="none" xmlns="http://www.w3.org/2000/svg">
<path d="M9.82031 6.26112C9.82031 5.83857 10.1627 5.49609 10.5852 5.49609C11.0077 5.49609 11.3502 5.83857 11.3502 6.26112C11.3502 6.68366 11.0077 7.02614 10.5852 7.02614C10.1627 7.02614 9.82031 6.68366 9.82031 6.26112Z" fill="#585858"/>
<path d="M13.6484 6.26112C13.6484 5.83857 13.9909 5.49609 14.4134 5.49609C14.8359 5.49609 15.1783 5.83857 15.1783 6.26112C15.1783 6.68366 14.8359 7.02614 14.4134 7.02614C13.9909 7.02614 13.6484 6.68366 13.6484 6.26112Z" fill="#585858"/>
<path d="M12.2536 16.3477C10.5578 17.1652 8.69284 17.6599 6.73078 17.779C6.50691 16.8755 6.37891 15.8484 6.37891 14.6758C6.37891 13.9723 6.45056 13.2911 6.57983 12.6406C8.13341 14.3158 10.4022 15.6071 12.2536 16.3477Z" fill="#585858"/>
<path d="M18.6173 14.6776C18.6173 20.2388 15.8775 22.7104 12.4978 22.7104C10.1459 22.7104 8.10654 21.5093 7.08203 18.9069C11.6431 18.555 15.7006 16.3252 18.4309 12.7266C18.55 13.3518 18.6173 14.0042 18.6173 14.6776Z" fill="#585858"/>
<path d="M6.94531 11.3018C7.12176 10.8025 7.33798 10.3338 7.58556 9.89648C8.70135 11.4013 10.4849 12.3826 12.4977 12.3826C14.5105 12.3826 16.2939 11.4013 17.4099 9.89674C17.6552 10.3303 17.8706 10.7939 18.0461 11.2883C16.8568 13.0657 15.3425 14.53 13.5944 15.615C11.6423 14.9903 8.55168 13.4021 6.94531 11.3018Z" fill="#585858"/>
<path d="M12.4955 11.2344C15.2371 11.2344 17.4676 9.00355 17.4676 6.26171C17.4676 3.51987 15.2371 1.28906 12.4955 1.28906C9.75399 1.28906 7.52344 3.51987 7.52344 6.26171C7.52344 9.00355 9.75399 11.2344 12.4955 11.2344ZM11.3213 2.64035C11.0105 3.7022 11.4267 5.12463 12.4953 5.24984C13.0585 5.31589 13.2911 4.44198 12.7768 4.176C12.6562 4.09542 12.5618 3.99036 12.4935 3.87178C12.1085 3.20315 12.8313 2.39401 13.5718 2.61077C15.1567 3.07488 16.3202 4.52817 16.3202 6.26171C16.3202 8.64374 14.1315 10.5244 11.66 9.99783C10.1964 9.68595 9.02628 8.48436 8.74351 7.01475C8.35543 4.99764 9.56684 3.21156 11.3213 2.64035Z" fill="#585858"/>
</svg>
