<svg width="25" height="24" viewBox="0 0 25 24" fill="none" xmlns="http://www.w3.org/2000/svg">
<g clip-path="url(#clip0_1864_1927)">
<path d="M24.1374 5.28047C24.1374 3.73647 22.8807 2.48047 21.3374 2.48047C19.7934 2.48047 18.5367 3.73647 18.5367 5.28047C18.5367 6.52192 19.3527 7.56338 20.4727 7.93138C20.317 15.5976 17.7447 19.8194 13.1767 19.8194C11.3076 19.8194 10.2479 19.4572 9.6443 19.0768C12.0407 18.4463 13.8058 16.3525 14.7119 13.0172H12.9454C12.2574 15.2448 10.8647 17.5823 8.03848 17.5823C8.02612 17.5823 8.01448 17.5823 8.00357 17.5823C5.18248 17.5823 3.79048 15.2441 3.10176 13.0172H1.33594C2.37594 16.8441 4.54466 19.0368 7.49521 19.2601C8.02394 20.1823 9.43121 21.5183 13.1774 21.5183C15.8327 21.5183 21.9359 20.1692 22.1759 7.93865C23.3083 7.57865 24.1374 6.53138 24.1374 5.28047ZM21.3374 6.38229C20.7294 6.38229 20.2356 5.88774 20.2356 5.27974C20.2356 4.6732 20.7294 4.17865 21.3374 4.17865C21.9439 4.17865 22.4385 4.6732 22.4385 5.27974C22.4385 5.88847 21.9439 6.38229 21.3374 6.38229Z" fill="#585858"/>
<path d="M15.1827 8.07151C15.1943 4.96388 14.7027 4.11151 14.3317 3.73915C14.0961 3.50206 13.8059 3.37842 13.4925 3.37842H11.971C11.7165 2.84824 11.1812 2.48242 10.5557 2.48242C9.68592 2.48242 8.98047 3.18715 8.98047 4.05624C8.98047 4.92679 9.68592 5.63151 10.5557 5.63151C11.1805 5.63151 11.7165 5.26497 11.9703 4.73697H13.3987C13.5019 4.89479 13.8328 5.59806 13.8234 8.06788C13.8205 9.31806 13.6787 10.6061 13.4336 11.7711H14.8263C15.1077 10.3159 15.1805 8.9886 15.1827 8.07151Z" fill="#585858"/>
<path d="M2.22203 8.06447C2.21257 5.59538 2.54421 4.89356 2.64748 4.73501H4.07585C4.33039 5.26374 4.86567 5.62956 5.49039 5.62956C6.36021 5.62956 7.06494 4.92483 7.06494 4.05429C7.06494 3.1852 6.36021 2.48047 5.49039 2.48047C4.86494 2.48047 4.32894 2.84701 4.07512 3.37647H2.55367C2.23948 3.37647 1.95003 3.50011 1.71439 3.7372C1.34348 4.10956 0.851848 4.96192 0.863484 8.07029C0.866393 8.98811 0.938393 10.3147 1.21985 11.7692H2.61185C2.36748 10.6027 2.22567 9.31465 2.22203 8.06447Z" fill="#585858"/>
</g>
<defs>
<clipPath id="clip0_1864_1927">
<rect width="24" height="24" fill="white" transform="translate(0.5)"/>
</clipPath>
</defs>
</svg>
