<svg width="40" height="40" viewBox="0 0 40 40" fill="none" xmlns="http://www.w3.org/2000/svg">
<path d="M19.9259 21.9121C17.4592 21.9121 15.4531 23.9182 15.4531 26.3848C15.4531 28.8515 17.4592 30.8515 19.9259 30.8515C22.3925 30.8515 24.3986 28.8455 24.3986 26.3848C24.3986 23.9242 22.3925 21.9121 19.9259 21.9121ZM19.9259 29.7909C18.0471 29.7909 16.5137 28.2636 16.5137 26.3848C16.5137 24.5061 18.041 22.9727 19.9259 22.9727C21.8107 22.9727 23.338 24.5 23.338 26.3848C23.338 28.2697 21.8046 29.7909 19.9259 29.7909Z" fill="#063334"/>
<path d="M21.0616 24.9487L19.3283 26.6821L18.7889 26.1427C18.5828 25.9366 18.2434 25.9366 18.0374 26.1427C17.8313 26.3487 17.8313 26.6881 18.0374 26.8942L18.9525 27.8093C19.0495 27.9063 19.1889 27.9669 19.3283 27.9669C19.4677 27.9669 19.601 27.9124 19.704 27.8093L21.8131 25.7063C22.0192 25.5002 22.0192 25.1608 21.8131 24.9548C21.6071 24.7427 21.2677 24.7427 21.0616 24.9487Z" fill="#063334"/>
<path d="M31.1122 7.97656H8.73646C8.44555 7.97656 8.20312 8.21293 8.20312 8.5099V12.1463C8.20312 12.4372 8.43949 12.6796 8.73646 12.6796H31.1183C31.4092 12.6796 31.6516 12.4432 31.6516 12.1463V8.5099C31.6455 8.21899 31.4092 7.97656 31.1122 7.97656ZM30.5849 11.6129H9.26373V9.03717H30.5849V11.6129Z" fill="#063334"/>
<path d="M31.1105 14.2695H8.90443C8.61352 14.2695 8.37109 14.5059 8.37109 14.8029C8.37109 15.0998 8.60746 15.3362 8.90443 15.3362H31.1165C31.4075 15.3362 31.6499 15.0998 31.6499 14.8029C31.6499 14.5059 31.4075 14.2695 31.1105 14.2695Z" fill="#063334"/>
<path d="M31.1105 16.6914H8.90443C8.61352 16.6914 8.37109 16.9278 8.37109 17.2247C8.37109 17.5217 8.60746 17.7581 8.90443 17.7581H31.1165C31.4075 17.7581 31.6499 17.5217 31.6499 17.2247C31.6499 16.9278 31.4075 16.6914 31.1105 16.6914Z" fill="#063334"/>
<path d="M13.2317 19.1152H8.90443C8.61352 19.1152 8.37109 19.3516 8.37109 19.6486C8.37109 19.9455 8.60746 20.1819 8.90443 20.1819H13.2317C13.5226 20.1819 13.765 19.9455 13.765 19.6486C13.765 19.3516 13.5226 19.1152 13.2317 19.1152Z" fill="#063334"/>
<path d="M31.1145 19.1172H26.7872C26.4963 19.1172 26.2539 19.3536 26.2539 19.6505C26.2539 19.9475 26.4903 20.1839 26.7872 20.1839H31.1145C31.4054 20.1839 31.6478 19.9475 31.6478 19.6505C31.6478 19.3536 31.4115 19.1172 31.1145 19.1172Z" fill="#063334"/>
<path d="M37.5024 1.82227H2.35092C1.39335 1.82227 0.605469 2.60408 0.605469 3.56772V27.3314C0.605469 28.289 1.38729 29.0768 2.35092 29.0768H13.5085C13.4964 29.1496 13.4843 29.2284 13.4721 29.3011C13.3691 29.8526 13.26 30.4829 13.6176 30.9738C13.9812 31.4708 14.6176 31.5556 15.1752 31.6344C15.4782 31.6769 15.8297 31.7253 15.9752 31.8284C16.1206 31.9314 16.2661 32.2465 16.3994 32.5193C16.6115 32.9678 16.854 33.4647 17.3024 33.7132V38.192C17.3024 38.386 17.4055 38.5617 17.5752 38.6587C17.654 38.7011 17.7449 38.7253 17.8297 38.7253C17.9267 38.7253 18.0236 38.7011 18.1085 38.6466L19.9994 37.4647L21.7206 38.6344C21.8843 38.7435 22.0903 38.7556 22.2661 38.6647C22.4418 38.5738 22.5449 38.392 22.5449 38.1981V33.7193C22.9933 33.4708 23.2358 32.9738 23.4479 32.5253C23.5812 32.2466 23.7267 31.9375 23.8721 31.8344C24.0176 31.7253 24.3691 31.6829 24.6721 31.6405C25.2297 31.5678 25.8661 31.4829 26.2297 30.9799C26.5873 30.4829 26.4782 29.8587 26.3752 29.3072C26.363 29.2344 26.3509 29.1617 26.3388 29.0829H37.5024C38.46 29.0829 39.2479 28.3011 39.2479 27.3375V3.56772C39.2479 2.60408 38.46 1.82227 37.5024 1.82227ZM20.3085 36.3859C20.1327 36.2708 19.9085 36.2647 19.7267 36.3738L18.357 37.2284V33.7799C18.6297 33.695 18.8903 33.5556 19.1327 33.4223C19.4115 33.2708 19.7267 33.1011 19.9267 33.1011C20.1206 33.1011 20.4418 33.2708 20.7206 33.4223C20.963 33.5556 21.2236 33.689 21.4964 33.7738V37.186L20.3085 36.3859ZM25.3812 30.3435C25.2843 30.4769 24.854 30.5314 24.5388 30.5738C24.0843 30.6344 23.6176 30.695 23.254 30.9617C22.8964 31.2223 22.6903 31.6465 22.4964 32.0526C22.363 32.3375 22.1752 32.7193 22.0176 32.7799C22.0055 32.7799 21.9994 32.7859 21.9873 32.7859C21.8358 32.8102 21.4661 32.6162 21.2176 32.4829C20.8297 32.2708 20.3873 32.0344 19.9206 32.0344C19.454 32.0344 19.0176 32.2708 18.6297 32.4829C18.3812 32.6162 18.0176 32.8041 17.86 32.7859C17.8479 32.7859 17.8418 32.7799 17.8297 32.7799C17.6721 32.7132 17.4903 32.3314 17.3509 32.0526C17.157 31.6465 16.957 31.2223 16.5933 30.9617C16.2297 30.695 15.763 30.6344 15.3085 30.5738C14.9933 30.5314 14.563 30.4708 14.4661 30.3435C14.3752 30.2162 14.4479 29.792 14.5085 29.4829C14.563 29.1799 14.6115 28.8708 14.5994 28.5678C14.5994 28.5556 14.6055 28.5496 14.6055 28.5435C14.6055 28.5314 14.5994 28.5253 14.5994 28.5132C14.5933 28.3859 14.5752 28.2587 14.5327 28.1375C14.3994 27.7193 14.06 27.4041 13.7388 27.095C13.4903 26.8587 13.1812 26.5678 13.1812 26.3859C13.1812 26.2102 13.4903 25.9132 13.7388 25.6768C14.0661 25.3678 14.3994 25.0465 14.5327 24.6344C14.6721 24.2041 14.5873 23.7374 14.5085 23.2829C14.454 22.9738 14.3752 22.5496 14.4661 22.4223C14.563 22.289 14.9933 22.2344 15.3085 22.192C15.763 22.1314 16.2297 22.0708 16.5933 21.8041C16.9509 21.5435 17.157 21.1193 17.3509 20.7132C17.4903 20.4223 17.6782 20.0284 17.8418 19.9738C17.9812 19.9314 18.3752 20.1374 18.6297 20.2768C19.0176 20.489 19.46 20.7253 19.9206 20.7253C20.3812 20.7253 20.8237 20.489 21.2176 20.2768C21.4721 20.1374 21.8661 19.9314 22.0055 19.9738C22.1691 20.0284 22.357 20.4223 22.4964 20.7132C22.6903 21.1193 22.8964 21.5435 23.254 21.8041C23.6176 22.0708 24.0843 22.1314 24.5388 22.192C24.854 22.2344 25.2843 22.295 25.3812 22.4223C25.4721 22.5496 25.3994 22.9738 25.3388 23.2829C25.26 23.7314 25.1752 24.1981 25.3146 24.6344C25.4479 25.0526 25.7873 25.3678 26.1085 25.6768C26.357 25.9132 26.6661 26.2041 26.6661 26.3859C26.6661 26.5678 26.357 26.8587 26.1085 27.095C25.7812 27.4041 25.4479 27.7193 25.3146 28.1375C25.2721 28.2647 25.254 28.3981 25.2479 28.5314C25.2479 28.5375 25.2479 28.5375 25.2479 28.5435C25.2479 28.5496 25.2479 28.5496 25.2479 28.5556C25.2358 28.8647 25.2843 29.1799 25.3388 29.4829C25.3994 29.792 25.4721 30.2162 25.3812 30.3435ZM26.9206 24.9799C26.8964 24.9556 26.8661 24.9314 26.8418 24.9071C26.6236 24.7011 26.3752 24.4647 26.3267 24.3071C26.2661 24.1314 26.3327 23.7799 26.3873 23.4708C26.4903 22.9193 26.5994 22.289 26.2418 21.798C25.8782 21.3011 25.2418 21.2162 24.6843 21.1374C24.3812 21.095 24.0297 21.0465 23.8843 20.9435C23.7388 20.8405 23.5933 20.5253 23.46 20.2526C23.2115 19.7374 22.9388 19.1556 22.3449 18.9617C21.7691 18.7738 21.2176 19.0768 20.7267 19.3374C20.4479 19.489 20.1327 19.6587 19.9327 19.6587C19.7388 19.6587 19.4236 19.489 19.1388 19.3374C18.6479 19.0708 18.0903 18.7738 17.5206 18.9617C16.9267 19.1556 16.6479 19.7374 16.4055 20.2526C16.2721 20.5314 16.1267 20.8405 15.9812 20.9435C15.8358 21.0526 15.4843 21.095 15.1812 21.1374C14.6236 21.2102 13.9873 21.295 13.6236 21.798C13.2661 22.295 13.3752 22.9193 13.4782 23.4708C13.5327 23.7799 13.5994 24.1253 13.5388 24.3071C13.4843 24.4708 13.2418 24.7011 13.0236 24.9132C12.9994 24.9374 12.9691 24.9617 12.9449 24.9859H7.0782C6.86001 23.7799 5.9085 22.8284 4.70244 22.6102V8.28894C5.9085 8.07076 6.86001 7.11924 7.0782 5.91318H32.7752C32.9933 7.11924 33.9449 8.07076 35.1509 8.28894V22.6041C33.9449 22.8223 32.9933 23.7738 32.7752 24.9799H26.9206ZM38.1873 27.3253C38.1873 27.7011 37.8843 28.0102 37.5024 28.0102H26.6843C26.7388 27.9617 26.7933 27.9072 26.8418 27.8587C27.26 27.4647 27.7267 27.0162 27.7267 26.3799C27.7267 26.2587 27.7024 26.1496 27.6721 26.0405H33.26C33.5509 26.0405 33.7933 25.8041 33.7933 25.5071C33.7933 24.4647 34.6418 23.6102 35.6903 23.6102C35.9812 23.6102 36.2236 23.3738 36.2236 23.0768V7.81015C36.2236 7.51924 35.9873 7.27682 35.6903 7.27682C34.6479 7.27682 33.7933 6.42833 33.7933 5.37985C33.7933 5.08894 33.557 4.84651 33.26 4.84651H6.59335C6.30244 4.84651 6.06001 5.08288 6.06001 5.37985C6.06001 6.42227 5.21153 7.27682 4.16304 7.27682C3.87214 7.27682 3.62971 7.51318 3.62971 7.81015V23.089C3.62971 23.3799 3.86607 23.6223 4.16304 23.6223C5.20547 23.6223 6.06001 24.4708 6.06001 25.5193C6.06001 25.8102 6.29638 26.0526 6.59335 26.0526H12.1752C12.1449 26.1617 12.1206 26.2708 12.1206 26.392C12.1206 27.0284 12.5933 27.4708 13.0055 27.8708C13.06 27.9193 13.1146 27.9738 13.163 28.0223H2.35092C1.97517 28.0223 1.66607 27.7193 1.66607 27.3375V3.56772C1.66607 3.19196 1.96911 2.88287 2.35092 2.88287H37.5024C37.8782 2.88287 38.1873 3.1859 38.1873 3.56772V27.3253Z" fill="#063334"/>
</svg>
