<svg width="40" height="35" viewBox="0 0 40 35" fill="none" xmlns="http://www.w3.org/2000/svg">
<path d="M24.299 15.6665H27.7959C28.0868 15.6665 28.3293 15.4301 28.3293 15.1331V11.9513C28.3293 11.6604 28.0929 11.418 27.7959 11.418H24.299C24.008 11.418 23.7656 11.6543 23.7656 11.9513V15.1331C23.7656 15.424 24.002 15.6665 24.299 15.6665ZM24.8262 12.4846H27.2626V14.6058H24.8262V12.4846Z" fill="#063334"/>
<path d="M7.86448 22.709H4.36146C4.07055 22.709 3.82812 22.9453 3.82812 23.2423V26.4241C3.82812 26.715 4.06449 26.9575 4.36146 26.9575H7.85842C8.14933 26.9575 8.39175 26.7211 8.39175 26.4241V23.2423C8.39175 22.9453 8.15539 22.709 7.86448 22.709ZM7.33115 25.8908H4.89479V23.7696H7.33115V25.8908Z" fill="#063334"/>
<path d="M14.4444 22.709H10.9474C10.6565 22.709 10.4141 22.9453 10.4141 23.2423V26.4241C10.4141 26.715 10.6504 26.9575 10.9474 26.9575H14.4444C14.7353 26.9575 14.9777 26.7211 14.9777 26.4241V23.2423C14.9716 22.9453 14.7353 22.709 14.4444 22.709ZM13.911 25.8908H11.4747V23.7696H13.911V25.8908Z" fill="#063334"/>
<path d="M21.2217 11.4219H17.7247C17.4338 11.4219 17.1914 11.6582 17.1914 11.9552V15.137C17.1914 15.4279 17.4278 15.6704 17.7247 15.6704H21.2217C21.5126 15.6704 21.755 15.434 21.755 15.137V11.9552C21.749 11.6582 21.5126 11.4219 21.2217 11.4219ZM20.6884 14.6037H18.252V12.4825H20.6884V14.6037Z" fill="#063334"/>
<path d="M21.2217 17.0625H17.7247C17.4338 17.0625 17.1914 17.2989 17.1914 17.5958V20.7777C17.1914 21.0686 17.4278 21.311 17.7247 21.311H21.2217C21.5126 21.311 21.755 21.0746 21.755 20.7777V17.5958C21.749 17.2989 21.5126 17.0625 21.2217 17.0625ZM20.6884 20.2443H18.252V18.1231H20.6884V20.2443Z" fill="#063334"/>
<path d="M14.4444 11.4219H10.9474C10.6565 11.4219 10.4141 11.6582 10.4141 11.9552V15.137C10.4141 15.4279 10.6504 15.6704 10.9474 15.6704H14.4444C14.7353 15.6704 14.9777 15.434 14.9777 15.137V11.9552C14.9716 11.6582 14.7353 11.4219 14.4444 11.4219ZM13.911 14.6037H11.4747V12.4825H13.911V14.6037Z" fill="#063334"/>
<path d="M7.85842 11.5918H4.36146C4.07055 11.5918 3.82812 11.8282 3.82812 12.1251V15.3069C3.82812 15.5979 4.06449 15.8403 4.36146 15.8403H7.85842C8.14933 15.8403 8.39175 15.6039 8.39175 15.3069V12.1251C8.38569 11.8282 8.14933 11.5918 7.85842 11.5918ZM7.32509 14.7736H4.88873V12.6524H7.32509V14.7736Z" fill="#063334"/>
<path d="M14.4444 17.0625H10.9474C10.6565 17.0625 10.4141 17.2989 10.4141 17.5958V20.7777C10.4141 21.0686 10.6504 21.311 10.9474 21.311H14.4444C14.7353 21.311 14.9777 21.0746 14.9777 20.7777V17.5958C14.9716 17.2989 14.7353 17.0625 14.4444 17.0625ZM13.911 20.2443H11.4747V18.1231H13.911V20.2443Z" fill="#063334"/>
<path d="M7.85842 17.2324H4.36146C4.07055 17.2324 3.82812 17.4688 3.82812 17.7658V20.9476C3.82812 21.2385 4.06449 21.4809 4.36146 21.4809H7.85842C8.14933 21.4809 8.39175 21.2445 8.39175 20.9476V17.7658C8.38569 17.4688 8.14933 17.2324 7.85842 17.2324ZM7.32509 20.4142H4.88873V18.293H7.32509V20.4142Z" fill="#063334"/>
<path d="M21.2217 22.709H17.7247C17.4338 22.709 17.1914 22.9453 17.1914 23.2423V26.4241C17.1914 26.715 17.4278 26.9575 17.7247 26.9575H21.2217C21.5126 26.9575 21.755 26.7211 21.755 26.4241V23.2423C21.749 22.9453 21.5126 22.709 21.2217 22.709ZM20.6884 25.8908H18.252V23.7696H20.6884V25.8908Z" fill="#063334"/>
<path d="M31.563 17.7908V8.79078V5.62714C31.563 4.04532 30.2721 2.75442 28.6903 2.75442H26.6842V1.14835C26.6842 0.530173 26.1812 0.0332031 25.5691 0.0332031H24.3691C23.7509 0.0332031 23.2539 0.536233 23.2539 1.14835V2.75442H20.7691V1.14835C20.7691 0.530173 20.266 0.0332031 19.6539 0.0332031H18.4539C17.8357 0.0332031 17.3388 0.536233 17.3388 1.14835V2.75442H14.8539V1.14835C14.8539 0.530173 14.3509 0.0332031 13.7388 0.0332031H12.5388C11.9206 0.0332031 11.4236 0.536233 11.4236 1.14835V2.75442H8.93879V1.14835C8.93879 0.530173 8.43576 0.0332031 7.82364 0.0332031H6.62364C6.00546 0.0332031 5.50849 0.536233 5.50849 1.14835V2.75442H3.47819C1.89638 2.75442 0.605469 4.04532 0.605469 5.62714V8.79078V27.2393C0.605469 28.8271 1.89638 30.112 3.47819 30.112H24.1266C25.5569 32.4696 28.1388 34.0574 31.0903 34.0574C35.5812 34.0574 39.2357 30.4029 39.2357 25.912C39.2418 21.5787 35.8357 18.0332 31.563 17.7908ZM24.3085 1.14835C24.3085 1.11805 24.3327 1.09381 24.363 1.09381H25.563C25.5933 1.09381 25.6176 1.11805 25.6176 1.14835V5.42108C25.6176 5.45138 25.5933 5.47563 25.563 5.47563H24.363C24.3327 5.47563 24.3085 5.45138 24.3085 5.42108V1.14835ZM18.3873 1.14835C18.3873 1.11805 18.4115 1.09381 18.4418 1.09381H19.6418C19.6721 1.09381 19.6964 1.11805 19.6964 1.14835V5.42108C19.6964 5.45138 19.6721 5.47563 19.6418 5.47563H18.4418C18.4115 5.47563 18.3873 5.45138 18.3873 5.42108V1.14835ZM12.4661 1.14835C12.4661 1.11805 12.4903 1.09381 12.5206 1.09381H13.7206C13.7509 1.09381 13.7751 1.11805 13.7751 1.14835V5.42108C13.7751 5.45138 13.7509 5.47563 13.7206 5.47563H12.5206C12.4903 5.47563 12.4661 5.45138 12.4661 5.42108V1.14835ZM6.54485 1.14835C6.54485 1.11805 6.5691 1.09381 6.5994 1.09381H7.7994C7.8297 1.09381 7.85394 1.11805 7.85394 1.14835V5.42108C7.85394 5.45138 7.8297 5.47563 7.7994 5.47563H6.5994C6.5691 5.47563 6.54485 5.45138 6.54485 5.42108V1.14835ZM1.66001 5.62714C1.66001 4.62714 2.47213 3.81502 3.47213 3.81502H5.47819V5.42108C5.47819 6.03926 5.98122 6.53623 6.59334 6.53623H7.7994C8.41758 6.53623 8.91455 6.0332 8.91455 5.42108V3.81502H11.3994V5.42108C11.3994 6.03926 11.9024 6.53623 12.5145 6.53623H13.7145C14.3327 6.53623 14.8297 6.0332 14.8297 5.42108V3.81502H17.3145V5.42108C17.3145 6.03926 17.8176 6.53623 18.4297 6.53623H19.6297C20.2479 6.53623 20.7448 6.0332 20.7448 5.42108V3.81502H23.2297V5.42108C23.2297 6.03926 23.7327 6.53623 24.3448 6.53623H25.5448C26.163 6.53623 26.66 6.0332 26.66 5.42108V3.81502H28.666C29.666 3.81502 30.4782 4.62714 30.4782 5.62714V8.25744H1.66001V5.62714ZM3.47819 29.0514C2.47819 29.0514 1.66607 28.2393 1.66607 27.2393V9.31805H30.5085V17.7968C29.7509 17.8514 29.0236 18.009 28.3327 18.2574V17.5968C28.3327 17.3059 28.0963 17.0635 27.7994 17.0635H24.3024C24.0115 17.0635 23.7691 17.2999 23.7691 17.5968V20.7787C23.7691 21.0696 24.0054 21.312 24.3024 21.312H24.3812C23.4782 22.6211 22.9448 24.209 22.9448 25.918C22.9448 27.0332 23.1691 28.0938 23.5751 29.0574H3.47819V29.0514ZM25.2539 20.2453H24.8297V18.1241H27.266V18.7241C26.5206 19.1241 25.8418 19.6393 25.2539 20.2453ZM31.0903 32.9968C27.1812 32.9968 24.0054 29.815 24.0054 25.912C24.0054 22.0029 27.1872 18.8271 31.0903 18.8271C34.9994 18.8271 38.1751 22.009 38.1751 25.912C38.1812 29.8211 34.9994 32.9968 31.0903 32.9968Z" fill="#063334"/>
<path d="M35.5898 24.0263H32.9776V21.4142C32.9776 21.1233 32.7413 20.8809 32.4443 20.8809H29.7413C29.4504 20.8809 29.2079 21.1172 29.2079 21.4142V24.0263H26.5958C26.3049 24.0263 26.0625 24.2627 26.0625 24.5596V27.2687C26.0625 27.5596 26.2989 27.8021 26.5958 27.8021H29.2079V30.4142C29.2079 30.7051 29.4443 30.9475 29.7413 30.9475H32.4504C32.7413 30.9475 32.9837 30.7112 32.9837 30.4142V27.8021H35.5958C35.8867 27.8021 36.1292 27.5657 36.1292 27.2687V24.5596C36.1231 24.2627 35.8807 24.0263 35.5898 24.0263ZM35.0625 26.7354H32.4504C32.1595 26.7354 31.917 26.9718 31.917 27.2687V29.8809H30.2686V27.2687C30.2686 26.9778 30.0322 26.7354 29.7352 26.7354H27.1231V25.0869H29.7352C30.0261 25.0869 30.2686 24.8506 30.2686 24.5536V21.9415H31.917V24.5536C31.917 24.8445 32.1534 25.0869 32.4504 25.0869H35.0625V26.7354Z" fill="#063334"/>
</svg>
