<svg width="40" height="34" viewBox="0 0 40 34" fill="none" xmlns="http://www.w3.org/2000/svg">
<path d="M17.1455 11.0156C13.8546 11.0156 11.1758 13.6944 11.1758 16.9853C11.1758 20.2762 13.8546 22.955 17.1455 22.955C20.4364 22.955 23.1152 20.2762 23.1152 16.9853C23.1152 13.6944 20.4364 11.0156 17.1455 11.0156ZM17.1455 21.8884C14.4424 21.8884 12.2364 19.6884 12.2364 16.9793C12.2364 14.2762 14.4364 12.0702 17.1455 12.0702C19.8546 12.0702 22.0546 14.2702 22.0546 16.9793C22.0546 19.6884 19.8485 21.8884 17.1455 21.8884Z" fill="#063334"/>
<path d="M19.8989 15.3795H18.7414V14.2219C18.7414 13.7795 18.3838 13.4219 17.9414 13.4219H16.3474C15.905 13.4219 15.5474 13.7795 15.5474 14.2219V15.3795H14.3898C13.9474 15.3795 13.5898 15.737 13.5898 16.1795V17.7795C13.5898 18.2219 13.9474 18.5795 14.3898 18.5795H15.5474V19.737C15.5474 20.1794 15.905 20.537 16.3474 20.537H17.9474C18.3898 20.537 18.7474 20.1794 18.7474 19.737V18.5795H19.905C20.3474 18.5795 20.705 18.2219 20.705 17.7795V16.1795C20.6989 15.737 20.3413 15.3795 19.8989 15.3795ZM19.6383 17.5128H18.2141C17.9232 17.5128 17.6807 17.7491 17.6807 18.0461V19.4704H16.602V18.0461C16.602 17.7552 16.3656 17.5128 16.0686 17.5128H14.6444V16.434H16.0686C16.3595 16.434 16.602 16.1976 16.602 15.9007V14.4764H17.6807V15.9007C17.6807 16.1916 17.9171 16.434 18.2141 16.434H19.6383V17.5128Z" fill="#063334"/>
<path d="M38.3124 20.7525C37.076 19.5161 35.0578 19.5161 33.8214 20.7525L33.6881 20.8858V9.34034V8.15852C33.6881 6.53428 32.3669 5.21307 30.7427 5.21307H29.5608V4.52822C29.5608 3.90398 29.0518 3.39489 28.4275 3.39489H25.8578C25.2336 3.39489 24.7245 3.90398 24.7245 4.52822V5.20701H24.1063V2.9767C24.1063 1.35246 22.7851 0.03125 21.1609 0.03125H13.1366C11.5124 0.03125 10.1912 1.35246 10.1912 2.9767V5.20701H9.57906V4.52822C9.57906 3.90398 9.06997 3.39489 8.44573 3.39489H5.86997C5.24573 3.39489 4.73664 3.90398 4.73664 4.52822V5.20701H3.55483C1.93058 5.20701 0.609375 6.52822 0.609375 8.15246V9.33428V24.6131V25.8009C0.609375 27.4252 1.93058 28.7464 3.55483 28.7464H22.7851L26.7366 32.6979C27.3548 33.3161 28.1669 33.6252 28.9851 33.6252C29.7972 33.6252 30.6093 33.3161 31.2336 32.6979C31.7184 32.2131 32.0093 31.607 32.1124 30.9767C32.573 30.8191 32.9972 30.5646 33.3427 30.2191L38.3245 25.2373C39.5487 24.007 39.5487 21.9888 38.3124 20.7525ZM28.8457 25.7343C28.8336 25.7464 28.8154 25.7646 28.8033 25.7828L26.2518 23.2313C25.0154 21.9949 22.9972 21.9949 21.7609 23.2313C21.5063 23.4858 21.3124 23.7767 21.1609 24.0919H1.66998V9.87367H32.6336V21.9464L28.8457 25.7343ZM23.3851 27.8494C23.379 27.8434 23.379 27.8434 23.373 27.8373L22.5063 26.9646C21.6821 26.1403 21.6821 24.7949 22.5063 23.9706C23.3306 23.1464 24.676 23.1464 25.5002 23.9706L27.6154 26.0858L24.6215 29.0797L23.3851 27.8494ZM25.779 4.52822C25.779 4.4858 25.8093 4.45549 25.8518 4.45549H28.4215C28.4639 4.45549 28.4942 4.4858 28.4942 4.52822V5.20701H25.773V4.52822H25.779ZM11.2518 2.98276C11.2518 1.94034 12.1003 1.09792 13.1366 1.09792H21.1609C22.2033 1.09792 23.0457 1.9464 23.0457 2.98276V5.21307H21.6881V2.98276C21.6881 2.69186 21.4518 2.44943 21.1548 2.44943H13.1366C12.8457 2.44943 12.6033 2.6858 12.6033 2.98276V5.21307H11.2457V2.98276H11.2518ZM13.6639 5.20701V3.51004H20.6275V5.20701H13.6639ZM5.79725 4.52822C5.79725 4.4858 5.82755 4.45549 5.86997 4.45549H8.43967C8.48209 4.45549 8.51239 4.4858 8.51239 4.52822V5.20701H5.79725V4.52822ZM1.66998 8.15852C1.66998 7.1161 2.51846 6.27367 3.55483 6.27367H30.7427C31.7851 6.27367 32.6275 7.12216 32.6275 8.15852V8.81307H1.66998V8.15852ZM1.66998 25.8009V25.1464H20.8578C20.8457 25.2555 20.8275 25.3646 20.8275 25.4737C20.8275 26.31 21.1487 27.0919 21.7306 27.6858H3.55483C2.5124 27.6919 1.66998 26.8434 1.66998 25.8009ZM30.476 31.9464C29.6518 32.7706 28.3063 32.7706 27.4821 31.9464L25.3669 29.8313L28.3608 26.8373L30.476 28.9525C31.3002 29.7828 31.3002 31.1222 30.476 31.9464ZM32.5851 29.4737C32.4396 29.6191 32.276 29.7403 32.0942 29.8373C31.979 29.2373 31.6881 28.6676 31.2275 28.207L29.5487 26.5282C29.5608 26.51 29.579 26.4919 29.5912 26.4797L31.7063 24.3646L34.7002 27.3585L32.5851 29.4737ZM37.5608 24.4919L35.4457 26.607L32.4518 23.6131L33.5305 22.5343L34.5669 21.4979C35.3911 20.6737 36.7366 20.6737 37.5608 21.4979C38.3851 22.3282 38.3851 23.6676 37.5608 24.4919Z" fill="#063334"/>
</svg>
