<svg width="579" height="340" viewBox="0 0 579 340" fill="none" xmlns="http://www.w3.org/2000/svg">
<path opacity="0.3" d="M567.117 80.076C567.759 80.7669 567.561 105.688 566.821 111.758L524.331 90.9823M567.117 80.076C566.476 79.4838 553.694 79.6812 549.993 80.3721C540.913 82.05 531.98 85.7512 524.331 90.9823M567.117 80.076L566.806 80.3652C566.784 80.3423 566.772 80.3225 566.766 80.3123C566.763 80.3077 566.761 80.3038 566.759 80.3007C566.757 80.2965 566.756 80.2939 566.756 80.2932C566.755 80.2916 566.759 80.2997 566.765 80.3222C566.77 80.3409 566.775 80.3642 566.781 80.3925C566.823 80.4031 566.851 80.4121 566.866 80.4183C566.891 80.4281 566.866 80.4226 566.829 80.3883L567.117 80.076ZM524.331 90.9823L524.571 91.3331C524.572 91.3326 524.572 91.3322 524.573 91.3317L524.331 90.9823ZM0.695129 172.722C0.703552 172.735 0.710999 172.748 0.717468 172.762C0.752625 172.835 0.760864 172.91 0.755615 172.973C0.832764 172.967 0.919006 172.96 1.01312 172.95C1.05566 172.924 1.10187 172.897 1.15179 172.867C1.38019 172.733 1.67212 172.571 2.01947 172.385C1.68372 172.438 1.37494 172.481 1.11572 172.511C1.02893 172.521 0.948975 172.53 0.876282 172.536C0.794678 172.585 0.721619 172.63 0.657532 172.67L0.687073 172.7L0.717896 172.762C0.710754 172.747 0.703125 172.734 0.695129 172.722ZM0.695129 172.722C0.684143 172.705 0.671448 172.687 0.656799 172.671C0.656677 172.671 0.656494 172.671 0.656372 172.671C0.6698 172.686 0.682861 172.703 0.695129 172.722ZM507.503 230.296L508.038 230.358L507.806 230.594L507.503 230.296ZM507.503 230.296L507.881 229.912L507.552 229.874L507.503 230.296ZM578.642 287.211C578.648 287.204 578.655 287.198 578.661 287.192C578.714 287.14 578.767 287.117 578.785 287.11C578.817 287.097 578.84 287.093 578.843 287.093L578.843 287.093C578.845 287.093 578.845 287.093 578.845 287.092C578.845 287.092 578.833 287.094 578.802 287.094C578.744 287.093 578.66 287.088 578.547 287.078C578.566 287.19 578.574 287.268 578.575 287.318C578.575 287.336 578.574 287.344 578.574 287.344C578.574 287.344 578.575 287.342 578.576 287.338L578.576 287.337C578.577 287.332 578.584 287.299 578.609 287.257C578.618 287.243 578.629 287.227 578.642 287.211ZM578.642 287.211C578.648 287.205 578.654 287.198 578.661 287.192L578.631 287.221L578.607 287.256C578.619 287.24 578.63 287.225 578.642 287.211ZM516.285 87.4817C516.285 87.4822 516.285 87.4827 516.285 87.4831L516.682 87.3304L516.284 87.4803C516.284 87.4807 516.285 87.4812 516.285 87.4817ZM460.279 73.072C460.278 73.0709 460.277 73.0699 460.276 73.0688C460.276 73.0684 460.276 73.0681 460.276 73.0677L459.93 73.3152L460.279 73.072ZM416.749 45.5807L416.842 45.1659C416.841 45.1658 416.841 45.1657 416.84 45.1656C416.84 45.1656 416.84 45.1655 416.84 45.1654L416.749 45.5807ZM323.417 186.881L323.232 187.263L323.418 186.881C323.418 186.881 323.418 186.881 323.417 186.881ZM504.824 64.7083L505.184 64.4816L504.824 64.708C504.824 64.7081 504.824 64.7082 504.824 64.7083ZM302.779 30.163C302.779 30.1629 302.779 30.1628 302.78 30.1626L302.505 29.8382L302.779 30.163ZM292.461 40.2349C292.461 40.2349 292.461 40.2348 292.461 40.2347C292.462 40.2343 292.462 40.2339 292.462 40.2335L292.142 39.9548L292.461 40.2349ZM363.928 196.314C363.928 196.314 363.928 196.314 363.927 196.314L363.945 196.738L363.928 196.314ZM392.625 189.005C392.624 189.005 392.624 189.005 392.624 189.005L392.815 189.385L392.625 189.005ZM430.32 137.963L429.901 137.891C429.901 137.891 429.901 137.892 429.901 137.892L430.32 137.963ZM412.564 99.6542C412.564 99.6544 412.565 99.6545 412.565 99.6546L412.752 99.273L412.564 99.6542ZM365.502 122.911C365.502 122.91 365.503 122.91 365.503 122.91L365.08 122.862L365.502 122.911ZM340.368 110.117C340.368 110.117 340.368 110.117 340.368 110.117L340.751 109.932L340.368 110.117ZM390.1 45.5807L390.01 45.1654C390.009 45.1655 390.008 45.1658 390.008 45.1659L390.1 45.5807ZM476.881 114.893C476.881 114.892 476.881 114.892 476.881 114.892L476.462 114.966L476.881 114.893ZM206.323 197.873L206.042 198.192C206.042 198.192 206.042 198.192 206.042 198.192L206.323 197.873ZM179.082 177.097L178.856 177.457C178.856 177.457 178.856 177.457 178.856 177.457L179.082 177.097ZM85.1223 151.219L85.1204 150.794V151.219C85.121 151.219 85.1217 151.219 85.1223 151.219ZM2.95337 172.656L2.87598 172.238C2.87543 172.238 2.87451 172.238 2.87396 172.238L2.95337 172.656ZM44.7031 170.287L44.7246 169.863C44.7242 169.863 44.7239 169.862 44.7235 169.862L44.7031 170.287ZM172.864 222.696L173.146 222.378C173.145 222.378 173.145 222.377 173.145 222.377L172.864 222.696ZM196.826 247.441C196.825 247.44 196.825 247.44 196.825 247.44L196.502 247.716L196.826 247.441ZM318.05 328.354L318.178 327.948C318.178 327.948 318.178 327.948 318.178 327.948L318.05 328.354ZM397.67 339.575L397.717 340H398.144L398.097 339.575H397.67ZM379.329 287.522L379.688 287.295L379.328 287.521C379.328 287.522 379.329 287.522 379.329 287.522ZM377.4 282.525C377.378 282.517 377.357 282.51 377.336 282.503C377.34 282.481 377.342 282.464 377.343 282.455C377.346 282.412 377.34 282.382 377.339 282.377C377.338 282.372 377.338 282.369 377.338 282.369C377.338 282.369 377.34 282.377 377.347 282.396C377.358 282.427 377.376 282.47 377.4 282.525ZM377.064 282.809C377.074 282.829 377.084 282.85 377.094 282.872C377.046 282.857 377.007 282.846 376.975 282.838C376.936 282.828 376.923 282.826 376.926 282.827C376.927 282.827 376.949 282.83 376.982 282.826C376.989 282.826 377.021 282.823 377.064 282.809ZM383.113 284.388C383.113 284.387 383.113 284.387 383.112 284.387L382.945 284.778L383.113 284.388ZM434.606 297.679C434.606 297.679 434.605 297.679 434.605 297.679C434.604 297.679 434.604 297.679 434.604 297.679L434.564 298.102L434.606 297.679ZM503.722 290.246L503.851 290.65L503.723 290.245C503.722 290.245 503.722 290.246 503.722 290.246ZM572.728 286.089C572.728 286.088 572.727 286.088 572.727 286.088C572.726 286.088 572.725 286.088 572.724 286.088L572.644 286.505L572.728 286.089ZM573.2 273.318C573.201 273.319 573.201 273.319 573.201 273.32C573.201 273.32 573.202 273.321 573.202 273.321L573.582 273.131L573.2 273.318ZM535.682 197.38L535.328 197.143C535.328 197.143 535.328 197.144 535.328 197.144L535.682 197.38Z" fill="#92C7B1" stroke="white" stroke-width="0.85"/>
</svg>
