<svg width="27" height="27" viewBox="0 0 27 27" fill="none" xmlns="http://www.w3.org/2000/svg">
<path d="M8.74321 13.1059C8.74321 10.6933 10.6997 8.73692 13.1138 8.73692C15.5279 8.73692 17.4854 10.6933 17.4854 13.1059C17.4854 15.5185 15.5279 17.4749 13.1138 17.4749C10.6997 17.4749 8.74321 15.5185 8.74321 13.1059ZM6.38 13.1059C6.38 16.8227 9.3947 19.8356 13.1138 19.8356C16.8328 19.8356 19.8475 16.8227 19.8475 13.1059C19.8475 9.38907 16.8328 6.37618 13.1138 6.37618C9.3947 6.37618 6.38 9.38907 6.38 13.1059ZM18.5405 6.10934C18.5403 6.42039 18.6325 6.7245 18.8053 6.9832C18.9781 7.2419 19.2238 7.44357 19.5113 7.56272C19.7988 7.68187 20.1152 7.71314 20.4205 7.65258C20.7258 7.59202 21.0062 7.44235 21.2264 7.22249C21.4466 7.00263 21.5965 6.72246 21.6574 6.41741C21.7182 6.11236 21.6872 5.79613 21.5682 5.5087C21.4492 5.22128 21.2476 4.97558 20.9889 4.80266C20.7302 4.62975 20.426 4.53739 20.1147 4.53726H20.1141C19.6969 4.53746 19.2969 4.70313 19.0018 4.99789C18.7067 5.29265 18.5408 5.6924 18.5405 6.10934ZM7.8158 23.7738C6.53726 23.7156 5.84234 23.5028 5.38053 23.3229C4.76827 23.0847 4.33142 22.801 3.87213 22.3426C3.41283 21.8842 3.12852 21.4481 2.89122 20.8362C2.71119 20.3749 2.49822 19.6801 2.4401 18.4024C2.37653 17.0209 2.36383 16.6059 2.36383 13.106C2.36383 9.6061 2.37758 9.19227 2.4401 7.80965C2.49833 6.53188 2.71287 5.83852 2.89122 5.37583C3.12957 4.76394 3.41346 4.32736 3.87213 3.86834C4.33079 3.40932 4.76722 3.12518 5.38053 2.88802C5.84213 2.7081 6.53726 2.49526 7.8158 2.43717C9.1981 2.37364 9.61333 2.36095 13.1138 2.36095C16.6142 2.36095 17.0299 2.37468 18.4133 2.43717C19.6918 2.49536 20.3856 2.70978 20.8486 2.88802C21.4608 3.12518 21.8977 3.40995 22.357 3.86834C22.8163 4.32673 23.0995 4.76394 23.3379 5.37583C23.5179 5.83716 23.7309 6.53188 23.789 7.80965C23.8526 9.19227 23.8653 9.6061 23.8653 13.106C23.8653 16.6059 23.8526 17.0197 23.789 18.4024C23.7308 19.6801 23.5168 20.3746 23.3379 20.8362C23.0995 21.4481 22.8156 21.8847 22.357 22.3426C21.8983 22.8006 21.4608 23.0847 20.8486 23.3229C20.387 23.5029 19.6918 23.7157 18.4133 23.7738C17.031 23.8373 16.6158 23.85 13.1138 23.85C9.61176 23.85 9.19768 23.8373 7.8158 23.7738ZM7.70722 0.0793693C6.31118 0.142907 5.35723 0.364134 4.52414 0.688112C3.66136 1.02268 2.93098 1.47153 2.20112 2.1998C1.47126 2.92807 1.02329 3.65917 0.688525 4.52143C0.364353 5.35455 0.142992 6.3074 0.079417 7.7026C0.0147923 9.1 0 9.54676 0 13.1059C0 16.665 0.0147923 17.1118 0.079417 18.5092C0.142992 19.9045 0.364353 20.8573 0.688525 21.6904C1.02329 22.5521 1.47136 23.284 2.20112 24.012C2.93087 24.74 3.66136 25.1882 4.52414 25.5237C5.35881 25.8477 6.31118 26.0689 7.70722 26.1324C9.1062 26.196 9.55249 26.2118 13.1138 26.2118C16.675 26.2118 17.1221 26.197 18.5203 26.1324C19.9165 26.0689 20.8698 25.8477 21.7034 25.5237C22.5656 25.1882 23.2965 24.7403 24.0264 24.012C24.7563 23.2837 25.2033 22.5521 25.539 21.6904C25.8632 20.8573 26.0856 19.9044 26.1481 18.5092C26.2117 17.1108 26.2265 16.665 26.2265 13.1059C26.2265 9.54676 26.2117 9.1 26.1481 7.7026C26.0845 6.30729 25.8632 5.35402 25.539 4.52143C25.2033 3.65969 24.7551 2.92922 24.0264 2.1998C23.2977 1.47038 22.5656 1.02268 21.7044 0.688112C20.8698 0.364134 19.9163 0.141858 18.5214 0.0793693C17.1231 0.0158319 16.6761 0 13.1148 0C9.55353 0 9.1062 0.0147835 7.70722 0.0793693Z" fill="url(#paint0_radial_1948_609)"/>
<path d="M8.74321 13.1059C8.74321 10.6933 10.6997 8.73692 13.1138 8.73692C15.5279 8.73692 17.4854 10.6933 17.4854 13.1059C17.4854 15.5185 15.5279 17.4749 13.1138 17.4749C10.6997 17.4749 8.74321 15.5185 8.74321 13.1059ZM6.38 13.1059C6.38 16.8227 9.3947 19.8356 13.1138 19.8356C16.8328 19.8356 19.8475 16.8227 19.8475 13.1059C19.8475 9.38907 16.8328 6.37618 13.1138 6.37618C9.3947 6.37618 6.38 9.38907 6.38 13.1059ZM18.5405 6.10934C18.5403 6.42039 18.6325 6.7245 18.8053 6.9832C18.9781 7.2419 19.2238 7.44357 19.5113 7.56272C19.7988 7.68187 20.1152 7.71314 20.4205 7.65258C20.7258 7.59202 21.0062 7.44235 21.2264 7.22249C21.4466 7.00263 21.5965 6.72246 21.6574 6.41741C21.7182 6.11236 21.6872 5.79613 21.5682 5.5087C21.4492 5.22128 21.2476 4.97558 20.9889 4.80266C20.7302 4.62975 20.426 4.53739 20.1147 4.53726H20.1141C19.6969 4.53746 19.2969 4.70313 19.0018 4.99789C18.7067 5.29265 18.5408 5.6924 18.5405 6.10934ZM7.8158 23.7738C6.53726 23.7156 5.84234 23.5028 5.38053 23.3229C4.76827 23.0847 4.33142 22.801 3.87213 22.3426C3.41283 21.8842 3.12852 21.4481 2.89122 20.8362C2.71119 20.3749 2.49822 19.6801 2.4401 18.4024C2.37653 17.0209 2.36383 16.6059 2.36383 13.106C2.36383 9.6061 2.37758 9.19227 2.4401 7.80965C2.49833 6.53188 2.71287 5.83852 2.89122 5.37583C3.12957 4.76394 3.41346 4.32736 3.87213 3.86834C4.33079 3.40932 4.76722 3.12518 5.38053 2.88802C5.84213 2.7081 6.53726 2.49526 7.8158 2.43717C9.1981 2.37364 9.61333 2.36095 13.1138 2.36095C16.6142 2.36095 17.0299 2.37468 18.4133 2.43717C19.6918 2.49536 20.3856 2.70978 20.8486 2.88802C21.4608 3.12518 21.8977 3.40995 22.357 3.86834C22.8163 4.32673 23.0995 4.76394 23.3379 5.37583C23.5179 5.83716 23.7309 6.53188 23.789 7.80965C23.8526 9.19227 23.8653 9.6061 23.8653 13.106C23.8653 16.6059 23.8526 17.0197 23.789 18.4024C23.7308 19.6801 23.5168 20.3746 23.3379 20.8362C23.0995 21.4481 22.8156 21.8847 22.357 22.3426C21.8983 22.8006 21.4608 23.0847 20.8486 23.3229C20.387 23.5029 19.6918 23.7157 18.4133 23.7738C17.031 23.8373 16.6158 23.85 13.1138 23.85C9.61176 23.85 9.19768 23.8373 7.8158 23.7738ZM7.70722 0.0793693C6.31118 0.142907 5.35723 0.364134 4.52414 0.688112C3.66136 1.02268 2.93098 1.47153 2.20112 2.1998C1.47126 2.92807 1.02329 3.65917 0.688525 4.52143C0.364353 5.35455 0.142992 6.3074 0.079417 7.7026C0.0147923 9.1 0 9.54676 0 13.1059C0 16.665 0.0147923 17.1118 0.079417 18.5092C0.142992 19.9045 0.364353 20.8573 0.688525 21.6904C1.02329 22.5521 1.47136 23.284 2.20112 24.012C2.93087 24.74 3.66136 25.1882 4.52414 25.5237C5.35881 25.8477 6.31118 26.0689 7.70722 26.1324C9.1062 26.196 9.55249 26.2118 13.1138 26.2118C16.675 26.2118 17.1221 26.197 18.5203 26.1324C19.9165 26.0689 20.8698 25.8477 21.7034 25.5237C22.5656 25.1882 23.2965 24.7403 24.0264 24.012C24.7563 23.2837 25.2033 22.5521 25.539 21.6904C25.8632 20.8573 26.0856 19.9044 26.1481 18.5092C26.2117 17.1108 26.2265 16.665 26.2265 13.1059C26.2265 9.54676 26.2117 9.1 26.1481 7.7026C26.0845 6.30729 25.8632 5.35402 25.539 4.52143C25.2033 3.65969 24.7551 2.92922 24.0264 2.1998C23.2977 1.47038 22.5656 1.02268 21.7044 0.688112C20.8698 0.364134 19.9163 0.141858 18.5214 0.0793693C17.1231 0.0158319 16.6761 0 13.1148 0C9.55353 0 9.1062 0.0147835 7.70722 0.0793693Z" fill="url(#paint1_radial_1948_609)"/>
<defs>
<radialGradient id="paint0_radial_1948_609" cx="0" cy="0" r="1" gradientUnits="userSpaceOnUse" gradientTransform="translate(3.48448 26.3356) scale(34.2378 34.2173)">
<stop offset="0.09" stop-color="#FA8F21"/>
<stop offset="0.78" stop-color="#D82D7E"/>
</radialGradient>
<radialGradient id="paint1_radial_1948_609" cx="0" cy="0" r="1" gradientUnits="userSpaceOnUse" gradientTransform="translate(15.9058 27.5099) scale(26.9841 26.968)">
<stop offset="0.64" stop-color="#8C3AAA" stop-opacity="0"/>
<stop offset="1" stop-color="#8C3AAA"/>
</radialGradient>
</defs>
</svg>
