<svg width="51" height="50" viewBox="0 0 51 50" fill="none" xmlns="http://www.w3.org/2000/svg">
<path fill-rule="evenodd" clip-rule="evenodd" d="M28.2817 19.4501C32.1188 19.4501 35.2294 16.3395 35.2294 12.5024C35.2294 8.66529 32.1188 5.55469 28.2817 5.55469C24.4446 5.55469 21.334 8.66529 21.334 12.5024C21.334 16.3395 24.4446 19.4501 28.2817 19.4501ZM28.2817 17.4651C31.0225 17.4651 33.2444 15.2432 33.2444 12.5024C33.2444 9.76161 31.0225 7.53975 28.2817 7.53975C25.5409 7.53975 23.319 9.76161 23.319 12.5024C23.319 15.2432 25.5409 17.4651 28.2817 17.4651Z" fill="#0F5F62"/>
<path fill-rule="evenodd" clip-rule="evenodd" d="M29.4005 33.7779L24.2498 32.2163V28.983C24.2498 28.4348 23.8055 27.9905 23.2573 27.9905C22.7092 27.9905 22.2648 28.4348 22.2648 28.983V32.9525C22.2648 33.3667 22.5218 33.735 22.9045 33.8802L24.6449 34.5405L23.1269 35.6177C23.0078 35.7022 22.9096 35.812 22.8383 35.9373L24.2464 37.8147C25.3977 39.3495 25.0867 41.527 23.5519 42.6781C22.0171 43.8294 19.8397 43.5184 18.6885 41.9836L13.4781 35.0369C12.6736 33.9644 12.5581 32.5246 13.1814 31.3377L17.1183 23.8394C17.7736 22.5911 18.9801 21.7255 20.3726 21.5045L32.3858 19.5978C33.8571 19.3643 35.3136 20.0949 36.006 21.4138L40.1744 29.3529C40.7977 30.5399 40.6822 31.9796 39.8777 33.0522L34.6673 39.9988C33.5161 41.5336 31.3387 41.8446 29.8039 40.6934C28.2691 39.5422 27.9581 37.3648 29.1092 35.83L30.3267 34.2069C30.2347 34.1229 30.1273 34.0565 30.01 34.0115L29.4005 33.7779ZM33.8536 33.1371L32.6382 34.4317L32.6386 34.4329L30.6973 37.0211C30.2039 37.6789 30.3372 38.612 30.995 39.1054C31.6527 39.5988 32.5859 39.4655 33.0793 38.8078L38.2897 31.861C38.6345 31.4014 38.684 30.7844 38.4169 30.2757L34.2486 22.3366C33.9517 21.7714 33.3276 21.4582 32.697 21.5584L20.6837 23.465C19.9102 23.5878 19.2399 24.0687 18.8758 24.7622L14.9389 32.2604C14.6718 32.7691 14.7213 33.3862 15.0661 33.8458L20.2765 40.7924C20.7698 41.4503 21.7031 41.5835 22.3608 41.0902C23.0186 40.5968 23.1519 39.6636 22.6585 39.0059L20.694 36.3867L20.6953 36.3783L18.9384 34.0477L20.2809 33.0357C20.2801 33.008 20.2797 32.9803 20.2797 32.9525V28.983C20.2797 27.3386 21.6129 26.0054 23.2573 26.0054C24.9018 26.0054 26.2349 27.3386 26.2349 28.983V30.7438L28.3761 31.3931C27.9299 30.6979 27.6712 29.8711 27.6712 28.9838C27.6712 26.517 29.6708 24.5174 32.1376 24.5174C34.6043 24.5174 36.604 26.517 36.604 28.9838C36.604 30.8505 35.4588 32.4498 33.8326 33.1173L33.8536 33.1371ZM29.6562 28.9838C29.6562 27.6134 30.7672 26.5025 32.1376 26.5025C33.5079 26.5025 34.6189 27.6134 34.6189 28.9838C34.6189 30.3542 33.5079 31.4651 32.1376 31.4651C30.7672 31.4651 29.6562 30.3542 29.6562 28.9838Z" fill="#0F5F62"/>
</svg>
