<svg width="24" height="24" viewBox="0 0 24 24" fill="none" xmlns="http://www.w3.org/2000/svg">
<path d="M13.8498 2.44911H13.8484C12.8389 -0.292713 8.83966 -0.419986 7.18148 2.59529C6.31821 4.16329 6.8753 6.73565 8.37566 9.21856C10.076 8.79529 12.3764 9.53783 12.3764 9.53783C12.2775 9.34438 12.188 9.15456 12.1051 8.96256C12.932 8.74074 13.5531 8.35456 13.9582 7.77783C14.7429 6.66074 14.7102 4.96038 13.8498 2.44911ZM13.1037 7.17929C12.8295 7.56983 12.3771 7.8382 11.7422 7.99165C11.0426 5.76838 11.2913 3.90511 11.2913 3.90511C12.0833 3.68038 12.628 3.44911 13.0069 3.23892C13.5909 5.11238 13.6244 6.43674 13.1037 7.17929Z" fill="#0F5F62"/>
<path d="M17.9279 18.9814C17.6043 17.1436 16.1643 15.8752 15.3163 15.2708C15.885 14.633 16.0006 13.833 15.6246 12.9952C14.6959 10.9239 10.8566 9.12902 7.69954 9.98356C7.69954 9.98356 7.12063 10.1537 6.78099 10.7617C5.8879 12.3654 5.66172 16.6127 6.67554 18.3217C6.77445 18.489 6.89735 18.6468 7.02972 18.8017C7.15772 20.9057 6.62826 23.6374 6.62826 23.6374H16.0377L16.1941 23.4628C17.6188 21.8701 18.2021 20.5392 17.9279 18.9814ZM14.3563 19.609C14.2559 20.2599 13.6763 20.177 13.6515 20.1785C12.0719 20.1588 8.48426 19.2592 7.54608 17.6825C6.87699 16.5574 6.9199 13.5174 7.44135 11.9821C7.6559 11.3516 7.84499 11.2607 7.84717 11.2592C9.17299 11.2861 9.07481 13.0236 9.1439 14.4425C9.19917 15.5814 9.24281 16.4825 9.62026 16.9763C10.3643 17.9508 11.3337 18.113 13.1948 18.6796C13.4864 18.7676 13.6784 18.8243 14.0014 18.9268C14.0261 18.9341 14.4406 19.0665 14.3563 19.609Z" fill="#0F5F62"/>
</svg>
