<svg width="30" height="30" viewBox="0 0 30 30" fill="none" xmlns="http://www.w3.org/2000/svg">
<path d="M17.3108 3.05992H17.309C16.0472 -0.367356 11.0481 -0.526447 8.97539 3.24264C7.8963 5.20264 8.59266 8.4181 10.4681 11.5217C12.5936 10.9926 15.469 11.9208 15.469 11.9208C15.3454 11.679 15.2336 11.4417 15.1299 11.2017C16.1636 10.9245 16.9399 10.4417 17.4463 9.72083C18.4272 8.32446 18.3863 6.19901 17.3108 3.05992ZM16.3781 8.97264C16.0354 9.46083 15.4699 9.79628 14.6763 9.9881C13.8018 7.20901 14.1127 4.87992 14.1127 4.87992C15.1027 4.59901 15.7836 4.30992 16.2572 4.04719C16.9872 6.38901 17.029 8.04446 16.3781 8.97264Z" fill="#0F5F62"/>
<path d="M22.4096 23.7277C22.0051 21.4304 20.2051 19.845 19.1451 19.0895C19.856 18.2922 20.0005 17.2922 19.5305 16.245C18.3696 13.6559 13.5705 11.4122 9.62418 12.4804C9.62418 12.4804 8.90054 12.6932 8.476 13.4532C7.35963 15.4577 7.0769 20.7668 8.34418 22.9032C8.46781 23.1122 8.62145 23.3095 8.7869 23.5032C8.9469 26.1332 8.28509 29.5477 8.28509 29.5477H20.0469L20.2424 29.3295C22.0233 27.3386 22.7524 25.675 22.4096 23.7277ZM17.9451 24.5122C17.8196 25.3259 17.0951 25.2222 17.0642 25.2241C15.0896 25.1995 10.6051 24.075 9.43236 22.1041C8.596 20.6977 8.64963 16.8977 9.30145 14.9786C9.56963 14.1904 9.80599 14.0768 9.80872 14.075C11.466 14.1086 11.3433 16.2804 11.4296 18.0541C11.4987 19.4777 11.5533 20.6041 12.0251 21.2213C12.9551 22.4395 14.1669 22.6422 16.4933 23.3504C16.8578 23.4604 17.0978 23.5313 17.5014 23.6595C17.5324 23.6686 18.0505 23.8341 17.9451 24.5122Z" fill="#0F5F62"/>
</svg>
