<svg width="25" height="24" viewBox="0 0 25 24" fill="none" xmlns="http://www.w3.org/2000/svg">
<path d="M6.99967 11.7308L9.86047 13.3772L9.50047 13.9868C9.41222 14.1385 9.26737 14.249 9.09773 14.294C8.92808 14.339 8.74751 14.3149 8.59567 14.2268L6.89167 13.2428C6.73996 13.1546 6.62948 13.0097 6.58448 12.8401C6.53948 12.6704 6.56365 12.4899 6.65167 12.338L6.99967 11.7308ZM15.4573 3.66923C15.5693 3.48185 15.643 3.27406 15.674 3.05793C15.705 2.84181 15.6927 2.62168 15.6379 2.41035C15.583 2.19902 15.4866 2.00072 15.3544 1.82698C15.2222 1.65325 15.0567 1.50755 14.8676 1.39837C14.6785 1.28919 14.4696 1.2187 14.2531 1.19102C14.0365 1.16334 13.8166 1.17901 13.6061 1.23712C13.3956 1.29524 13.1988 1.39463 13.0272 1.52952C12.8555 1.66441 12.7123 1.8321 12.6061 2.02283L7.26847 11.2628L10.1221 12.9116L15.4573 3.66923ZM23.1085 22.2596H21.4741C21.4365 22.2561 21.3986 22.2604 21.3627 22.2724C21.3269 22.2843 21.294 22.3036 21.2661 22.3291C21.2381 22.3545 21.2158 22.3854 21.2005 22.42C21.1853 22.4545 21.1774 22.4919 21.1774 22.5296C21.1774 22.5674 21.1853 22.6047 21.2005 22.6393C21.2158 22.6738 21.2381 22.7048 21.2661 22.7302C21.294 22.7556 21.3269 22.7749 21.3627 22.7869C21.3986 22.7988 21.4365 22.8032 21.4741 22.7996H23.1085C23.1757 22.7933 23.2381 22.7621 23.2836 22.7122C23.329 22.6622 23.3542 22.5971 23.3542 22.5296C23.3542 22.4621 23.329 22.397 23.2836 22.3471C23.2381 22.2972 23.1757 22.266 23.1085 22.2596ZM22.4701 15.2276C22.4701 16.2244 22.1745 17.1989 21.6207 18.0277C21.0669 18.8565 20.2797 19.5025 19.3588 19.884C18.4379 20.2654 17.4245 20.3653 16.4468 20.1708C15.4692 19.9763 14.5711 19.4963 13.8663 18.7914C13.1614 18.0866 12.6814 17.1886 12.4869 16.2109C12.2924 15.2332 12.3923 14.2198 12.7737 13.2989C13.1552 12.378 13.8012 11.5908 14.63 11.037C15.4588 10.4832 16.4333 10.1876 17.4301 10.1876C18.7668 10.1876 20.0487 10.7186 20.9939 11.6638C21.9391 12.609 22.4701 13.8909 22.4701 15.2276ZM20.1109 14.438C20.1109 14.3559 20.0783 14.2772 20.0202 14.2191C19.9621 14.1611 19.8834 14.1284 19.8013 14.1284H18.5293V12.8564C18.5293 12.7743 18.4967 12.6956 18.4386 12.6375C18.3805 12.5795 18.3018 12.5468 18.2197 12.5468H16.6381C16.5581 12.5499 16.4824 12.5839 16.4269 12.6416C16.3714 12.6994 16.3404 12.7764 16.3405 12.8564V14.1284H15.0685C14.9864 14.1284 14.9076 14.1611 14.8496 14.2191C14.7915 14.2772 14.7589 14.3559 14.7589 14.438V16.0196C14.7612 16.098 14.7933 16.1726 14.8485 16.2283C14.9038 16.284 14.9781 16.3166 15.0565 16.3196H16.3405V17.5916C16.3405 17.6323 16.3485 17.6725 16.364 17.7101C16.3796 17.7477 16.4024 17.7818 16.4312 17.8106C16.4599 17.8393 16.494 17.8621 16.5316 17.8777C16.5692 17.8932 16.6094 17.9012 16.6501 17.9012H18.2317C18.2723 17.9012 18.3126 17.8932 18.3502 17.8777C18.3877 17.8621 18.4218 17.8393 18.4506 17.8106C18.4793 17.7818 18.5021 17.7477 18.5177 17.7101C18.5333 17.6725 18.5413 17.6323 18.5413 17.5916V16.3196H19.8133C19.8539 16.3196 19.8942 16.3116 19.9318 16.2961C19.9693 16.2805 20.0034 16.2577 20.0322 16.229C20.0609 16.2002 20.0837 16.1661 20.0993 16.1285C20.1149 16.0909 20.1229 16.0507 20.1229 16.01L20.1109 14.438ZM19.3237 22.2596H17.6893C17.6221 22.266 17.5596 22.2972 17.5142 22.3471C17.4687 22.397 17.4436 22.4621 17.4436 22.5296C17.4436 22.5971 17.4687 22.6622 17.5142 22.7122C17.5596 22.7621 17.6221 22.7933 17.6893 22.7996H19.3237C19.3613 22.8032 19.3992 22.7988 19.435 22.7869C19.4708 22.7749 19.5038 22.7556 19.5317 22.7302C19.5596 22.7048 19.5819 22.6738 19.5972 22.6393C19.6125 22.6047 19.6204 22.5674 19.6204 22.5296C19.6204 22.4919 19.6125 22.4545 19.5972 22.42C19.5819 22.3854 19.5596 22.3545 19.5317 22.3291C19.5038 22.3036 19.4708 22.2843 19.435 22.2724C19.3992 22.2604 19.3613 22.2561 19.3237 22.2596ZM1.65487 22.3196C1.63751 22.3499 1.62741 22.3838 1.62538 22.4187C1.62335 22.4535 1.62944 22.4884 1.64316 22.5205C1.65689 22.5526 1.67788 22.5811 1.70448 22.6037C1.73109 22.6263 1.76258 22.6425 1.79647 22.6508C3.38047 23.0396 5.20447 22.7252 6.06607 21.2636L7.85407 18.17C7.88459 18.1185 7.90418 18.0612 7.91161 18.0017C7.91904 17.9423 7.91416 17.8819 7.89727 17.8244L7.50127 16.3844C7.4843 16.3274 7.47937 16.2674 7.4868 16.2083C7.49424 16.1492 7.51388 16.0923 7.54447 16.0412L8.32447 14.69L6.62047 13.706L1.65487 22.3196ZM11.7589 22.262H10.1245C10.0869 22.2585 10.049 22.2628 10.0131 22.2748C9.97731 22.2867 9.94438 22.306 9.91645 22.3315C9.88853 22.3569 9.86621 22.3878 9.85094 22.4224C9.83568 22.4569 9.82779 22.4943 9.82779 22.532C9.82779 22.5698 9.83568 22.6071 9.85094 22.6417C9.86621 22.6762 9.88853 22.7072 9.91645 22.7326C9.94438 22.758 9.97731 22.7773 10.0131 22.7893C10.049 22.8012 10.0869 22.8056 10.1245 22.802H11.7589C11.8261 22.7957 11.8885 22.7645 11.934 22.7146C11.9794 22.6646 12.0046 22.5995 12.0046 22.532C12.0046 22.4645 11.9794 22.3994 11.934 22.3495C11.8885 22.2996 11.8261 22.2684 11.7589 22.262ZM15.5413 22.262H13.9069C13.8397 22.2684 13.7772 22.2996 13.7318 22.3495C13.6863 22.3994 13.6612 22.4645 13.6612 22.532C13.6612 22.5995 13.6863 22.6646 13.7318 22.7146C13.7772 22.7645 13.8397 22.7957 13.9069 22.802H15.5413C15.5789 22.8056 15.6168 22.8012 15.6526 22.7893C15.6884 22.7773 15.7214 22.758 15.7493 22.7326C15.7772 22.7072 15.7995 22.6762 15.8148 22.6417C15.8301 22.6071 15.838 22.5698 15.838 22.532C15.838 22.4943 15.8301 22.4569 15.8148 22.4224C15.7995 22.3878 15.7772 22.3569 15.7493 22.3315C15.7214 22.306 15.6884 22.2867 15.6526 22.2748C15.6168 22.2628 15.5789 22.2585 15.5413 22.262ZM7.97407 22.262H6.33967C6.27246 22.2684 6.21002 22.2996 6.16458 22.3495C6.11914 22.3994 6.09396 22.4645 6.09396 22.532C6.09396 22.5995 6.11914 22.6646 6.16458 22.7146C6.21002 22.7645 6.27246 22.7957 6.33967 22.802H7.97407C8.01167 22.8056 8.04959 22.8012 8.08541 22.7893C8.12123 22.7773 8.15416 22.758 8.18209 22.7326C8.21002 22.7072 8.23233 22.6762 8.2476 22.6417C8.26287 22.6071 8.27076 22.5698 8.27076 22.532C8.27076 22.4943 8.26287 22.4569 8.2476 22.4224C8.23233 22.3878 8.21002 22.3569 8.18209 22.3315C8.15416 22.306 8.12123 22.2867 8.08541 22.2748C8.04959 22.2628 8.01167 22.2585 7.97407 22.262Z" fill="#0F5F62"/>
</svg>
