<svg width="23" height="22" viewBox="0 0 23 22" fill="none" xmlns="http://www.w3.org/2000/svg">
<path d="M5.99967 10.7308L8.86047 12.3772L8.50047 12.9868C8.41222 13.1385 8.26737 13.249 8.09773 13.294C7.92808 13.339 7.74751 13.3149 7.59567 13.2268L5.89167 12.2428C5.73996 12.1546 5.62948 12.0097 5.58448 11.8401C5.53948 11.6704 5.56365 11.4899 5.65167 11.338L5.99967 10.7308ZM14.4573 2.66923C14.5693 2.48185 14.643 2.27406 14.674 2.05793C14.705 1.84181 14.6927 1.62168 14.6379 1.41035C14.583 1.19902 14.4866 1.00072 14.3544 0.826981C14.2222 0.653246 14.0567 0.507547 13.8676 0.398366C13.6785 0.289185 13.4696 0.218703 13.2531 0.191021C13.0365 0.163339 12.8166 0.17901 12.6061 0.237123C12.3956 0.295237 12.1988 0.39463 12.0272 0.52952C11.8555 0.664409 11.7123 0.8321 11.6061 1.02283L6.26847 10.2628L9.12207 11.9116L14.4573 2.66923ZM22.1085 21.2596H20.4741C20.4365 21.2561 20.3986 21.2604 20.3627 21.2724C20.3269 21.2843 20.294 21.3036 20.2661 21.3291C20.2381 21.3545 20.2158 21.3854 20.2005 21.42C20.1853 21.4545 20.1774 21.4919 20.1774 21.5296C20.1774 21.5674 20.1853 21.6047 20.2005 21.6393C20.2158 21.6738 20.2381 21.7048 20.2661 21.7302C20.294 21.7556 20.3269 21.7749 20.3627 21.7869C20.3986 21.7988 20.4365 21.8032 20.4741 21.7996H22.1085C22.1757 21.7933 22.2381 21.7621 22.2836 21.7122C22.329 21.6622 22.3542 21.5971 22.3542 21.5296C22.3542 21.4621 22.329 21.397 22.2836 21.3471C22.2381 21.2972 22.1757 21.266 22.1085 21.2596ZM21.4701 14.2276C21.4701 15.2244 21.1745 16.1989 20.6207 17.0277C20.0669 17.8565 19.2797 18.5025 18.3588 18.884C17.4379 19.2654 16.4245 19.3653 15.4468 19.1708C14.4692 18.9763 13.5711 18.4963 12.8663 17.7914C12.1614 17.0866 11.6814 16.1886 11.4869 15.2109C11.2924 14.2332 11.3923 13.2198 11.7737 12.2989C12.1552 11.378 12.8012 10.5908 13.63 10.037C14.4588 9.48322 15.4333 9.18763 16.4301 9.18763C17.7668 9.18763 19.0487 9.71863 19.9939 10.6638C20.9391 11.609 21.4701 12.8909 21.4701 14.2276ZM19.1109 13.438C19.1109 13.3559 19.0783 13.2772 19.0202 13.2191C18.9621 13.1611 18.8834 13.1284 18.8013 13.1284H17.5293V11.8564C17.5293 11.7743 17.4967 11.6956 17.4386 11.6375C17.3805 11.5795 17.3018 11.5468 17.2197 11.5468H15.6381C15.5581 11.5499 15.4824 11.5839 15.4269 11.6416C15.3714 11.6994 15.3404 11.7764 15.3405 11.8564V13.1284H14.0685C13.9864 13.1284 13.9076 13.1611 13.8496 13.2191C13.7915 13.2772 13.7589 13.3559 13.7589 13.438V15.0196C13.7612 15.098 13.7933 15.1726 13.8485 15.2283C13.9038 15.284 13.9781 15.3166 14.0565 15.3196H15.3405V16.5916C15.3405 16.6323 15.3485 16.6725 15.364 16.7101C15.3796 16.7477 15.4024 16.7818 15.4312 16.8106C15.4599 16.8393 15.494 16.8621 15.5316 16.8777C15.5692 16.8932 15.6094 16.9012 15.6501 16.9012H17.2317C17.2723 16.9012 17.3126 16.8932 17.3502 16.8777C17.3877 16.8621 17.4218 16.8393 17.4506 16.8106C17.4793 16.7818 17.5021 16.7477 17.5177 16.7101C17.5333 16.6725 17.5413 16.6323 17.5413 16.5916V15.3196H18.8133C18.8539 15.3196 18.8942 15.3116 18.9318 15.2961C18.9693 15.2805 19.0034 15.2577 19.0322 15.229C19.0609 15.2002 19.0837 15.1661 19.0993 15.1285C19.1149 15.0909 19.1229 15.0507 19.1229 15.01L19.1109 13.438ZM18.3237 21.2596H16.6893C16.6221 21.266 16.5596 21.2972 16.5142 21.3471C16.4687 21.397 16.4436 21.4621 16.4436 21.5296C16.4436 21.5971 16.4687 21.6622 16.5142 21.7122C16.5596 21.7621 16.6221 21.7933 16.6893 21.7996H18.3237C18.3613 21.8032 18.3992 21.7988 18.435 21.7869C18.4708 21.7749 18.5038 21.7556 18.5317 21.7302C18.5596 21.7048 18.5819 21.6738 18.5972 21.6393C18.6125 21.6047 18.6204 21.5674 18.6204 21.5296C18.6204 21.4919 18.6125 21.4545 18.5972 21.42C18.5819 21.3854 18.5596 21.3545 18.5317 21.3291C18.5038 21.3036 18.4708 21.2843 18.435 21.2724C18.3992 21.2604 18.3613 21.2561 18.3237 21.2596ZM0.654873 21.3196C0.63751 21.3499 0.627414 21.3838 0.625382 21.4187C0.62335 21.4535 0.629437 21.4884 0.643163 21.5205C0.656889 21.5526 0.67788 21.5811 0.704484 21.6037C0.731087 21.6263 0.762577 21.6425 0.796473 21.6508C2.38047 22.0396 4.20447 21.7252 5.06607 20.2636L6.85407 17.17C6.88459 17.1185 6.90418 17.0612 6.91161 17.0017C6.91904 16.9423 6.91416 16.8819 6.89727 16.8244L6.50127 15.3844C6.4843 15.3274 6.47937 15.2674 6.4868 15.2083C6.49424 15.1492 6.51388 15.0923 6.54447 15.0412L7.32447 13.69L5.62047 12.706L0.654873 21.3196ZM10.7589 21.262H9.12447C9.08688 21.2585 9.04895 21.2628 9.01313 21.2748C8.97731 21.2867 8.94438 21.306 8.91645 21.3315C8.88853 21.3569 8.86621 21.3878 8.85094 21.4224C8.83568 21.4569 8.82779 21.4943 8.82779 21.532C8.82779 21.5698 8.83568 21.6071 8.85094 21.6417C8.86621 21.6762 8.88853 21.7072 8.91645 21.7326C8.94438 21.758 8.97731 21.7773 9.01313 21.7893C9.04895 21.8012 9.08688 21.8056 9.12447 21.802H10.7589C10.8261 21.7957 10.8885 21.7645 10.934 21.7146C10.9794 21.6646 11.0046 21.5995 11.0046 21.532C11.0046 21.4645 10.9794 21.3994 10.934 21.3495C10.8885 21.2996 10.8261 21.2684 10.7589 21.262ZM14.5413 21.262H12.9069C12.8397 21.2684 12.7772 21.2996 12.7318 21.3495C12.6863 21.3994 12.6612 21.4645 12.6612 21.532C12.6612 21.5995 12.6863 21.6646 12.7318 21.7146C12.7772 21.7645 12.8397 21.7957 12.9069 21.802H14.5413C14.5789 21.8056 14.6168 21.8012 14.6526 21.7893C14.6884 21.7773 14.7214 21.758 14.7493 21.7326C14.7772 21.7072 14.7995 21.6762 14.8148 21.6417C14.8301 21.6071 14.838 21.5698 14.838 21.532C14.838 21.4943 14.8301 21.4569 14.8148 21.4224C14.7995 21.3878 14.7772 21.3569 14.7493 21.3315C14.7214 21.306 14.6884 21.2867 14.6526 21.2748C14.6168 21.2628 14.5789 21.2585 14.5413 21.262ZM6.97407 21.262H5.33967C5.27246 21.2684 5.21002 21.2996 5.16458 21.3495C5.11914 21.3994 5.09396 21.4645 5.09396 21.532C5.09396 21.5995 5.11914 21.6646 5.16458 21.7146C5.21002 21.7645 5.27246 21.7957 5.33967 21.802H6.97407C7.01167 21.8056 7.04959 21.8012 7.08541 21.7893C7.12123 21.7773 7.15416 21.758 7.18209 21.7326C7.21002 21.7072 7.23233 21.6762 7.2476 21.6417C7.26287 21.6071 7.27076 21.5698 7.27076 21.532C7.27076 21.4943 7.26287 21.4569 7.2476 21.4224C7.23233 21.3878 7.21002 21.3569 7.18209 21.3315C7.15416 21.306 7.12123 21.2867 7.08541 21.2748C7.04959 21.2628 7.01167 21.2585 6.97407 21.262Z" fill="#585858"/>
</svg>
