<svg width="89" height="147" viewBox="0 0 89 147" fill="none" xmlns="http://www.w3.org/2000/svg">
<path d="M63.85 8.60767C72.6462 16.3063 77.271 27.7801 80.7518 39.031C85.5406 54.5107 88.7884 70.6278 88.4128 86.7961C88.0373 102.963 83.8718 119.239 74.8546 132.432C72.218 136.29 69.1291 139.915 65.2373 142.436C53.7993 149.846 37.7495 145.756 27.6687 136.283C17.5869 126.811 12.3259 113.216 8.47988 99.8327C6.17744 91.8201 4.26088 83.6982 2.73196 75.5044C-0.0737922 60.4705 -1.51551 44.624 3.2914 30.2215C11.176 6.60605 42.6989 -9.90132 63.85 8.60767Z" fill="#65B6FE"/>
<path d="M64.3133 19.0966C66.791 23.5587 66.9991 30.1836 68.3372 35.0168C69.1832 38.0652 74.2025 39.2161 76.3547 44.9617C77.6324 48.3709 76.3029 58.934 63.0658 63.7673C52.9841 67.4488 44.9752 69.5779 36.2367 69.7184C32.269 69.7834 27.0995 68.3143 23.995 65.984C22.0163 64.501 20.5668 62.5184 19.0966 60.7102C16.3711 57.3695 15.9075 52.1148 13.2313 48.7455C9.16509 43.6322 8.56941 27.8628 14.5901 20.1642C23.4615 8.82135 42.1539 5.26387 52.2848 8.20734C57.8972 9.83778 61.2909 13.2782 64.3133 19.0966Z" fill="#FAB595"/>
<mask id="mask0_1333_6629" style="mask-type:luminance" maskUnits="userSpaceOnUse" x="60" y="40" width="16" height="16">
<path d="M75.4672 51.3213C75.1633 52.5008 74.388 53.5866 72.9454 54.3931C71.4925 55.2118 69.6467 55.6671 68.0177 55.3888C64.8813 54.8441 62.9595 51.8807 62.0004 49.4255C61.8243 48.9728 61.6801 48.5391 61.5636 48.1376C61.1725 46.7474 59.6531 43.8022 60.5259 42.3096C61.0559 41.3982 62.319 40.7833 63.6977 40.4693C65.0816 40.1545 66.5785 40.1458 67.567 40.4372C70.0853 41.177 72.1046 42.9081 73.4841 44.6166C74.9768 46.4786 76.0853 48.9337 75.4672 51.3213Z" fill="white"/>
</mask>
<g mask="url(#mask0_1333_6629)">
<mask id="mask1_1333_6629" style="mask-type:luminance" maskUnits="userSpaceOnUse" x="60" y="40" width="16" height="16">
<path d="M75.4672 51.3213C75.1633 52.5008 74.388 53.5866 72.9454 54.3931C71.4925 55.2118 69.6467 55.6671 68.0177 55.3888C64.8813 54.8441 62.9595 51.8807 62.0004 49.4255C61.8243 48.9728 61.6801 48.5391 61.5636 48.1376C61.1725 46.7474 59.6531 43.8022 60.5259 42.3096C61.0559 41.3982 62.319 40.7833 63.6977 40.4693C65.0816 40.1545 66.5785 40.1458 67.567 40.4372C70.0853 41.177 72.1046 42.9081 73.4841 44.6166C74.9768 46.4786 76.0853 48.9337 75.4672 51.3213Z" fill="white"/>
</mask>
<g mask="url(#mask1_1333_6629)">
<path fill-rule="evenodd" clip-rule="evenodd" d="M64.5366 43.553C63.6918 42.6434 62.9596 41.7059 62.6919 40.762C62.3715 40.878 62.0676 41.0127 61.7902 41.1664C61.7902 41.1668 61.7902 41.1673 61.7902 41.1678C61.2364 41.4744 60.7882 41.8556 60.5237 42.3114C60.0868 43.0575 60.2484 44.1667 60.5682 45.2629C60.5682 45.2629 60.5682 45.263 60.5682 45.263C60.7415 45.8576 60.9613 46.4485 61.1574 46.9758C61.323 47.421 61.4718 47.8208 61.5613 48.1391C62.0377 47.9401 62.5996 47.7254 63.2062 47.5048C63.0409 47.0977 62.7481 46.581 62.4266 46.014L62.4266 46.014C62.1791 45.5772 61.9146 45.1106 61.6784 44.641C61.6785 44.641 61.6786 44.6409 61.6787 44.6409C61.915 45.1105 62.1795 45.5772 62.4271 46.014C62.7485 46.581 63.0413 47.0977 63.2066 47.5048C63.8132 47.2837 64.4648 47.0568 65.1208 46.8323C64.8478 46.4143 64.4775 45.9356 64.0828 45.4255L64.0828 45.4255L64.0828 45.4254C63.7451 44.9888 63.3895 44.5292 63.062 44.065C63.0619 44.065 63.0617 44.0651 63.0616 44.0651C63.0615 44.0649 63.0613 44.0648 63.0612 44.0646C63.5472 43.8824 64.0492 43.711 64.5366 43.553Z" fill="url(#paint0_radial_1333_6629)"/>
</g>
</g>
<path d="M13.1347 46.2289C5.45645 45.2914 8.89588 53.383 10.518 56.5372C11.8648 59.1563 15.0401 63.5142 19.4818 62.3452C24.2636 61.0825 23.6766 55.643 22.4973 52.8721C20.9762 49.2912 17.8026 46.7788 13.1347 46.2289Z" fill="#FAB595"/>
<mask id="mask2_1333_6629" style="mask-type:luminance" maskUnits="userSpaceOnUse" x="20" y="49" width="22" height="17">
<path d="M21.8301 53.1002C23.6388 50.8991 26.4419 49.7986 29.385 49.6017C31.7711 49.4447 34.254 49.8792 36.3726 50.8089C38.7406 51.8444 40.7237 53.5347 41.473 55.6213C42.187 57.6065 41.4946 59.9654 39.9044 61.9176C38.5576 63.5689 36.5746 64.9304 34.2575 65.5427C33.4183 65.763 32.5412 65.8844 31.633 65.8879C29.732 65.8923 27.6704 65.3329 25.8178 64.4058C23.4773 63.2298 21.4736 61.4701 20.5723 59.5318C20.0509 58.4208 19.8963 57.2483 20.2442 56.0974C20.6008 54.9327 21.1473 53.9354 21.8301 53.1002Z" fill="white"/>
</mask>
<g mask="url(#mask2_1333_6629)">
<mask id="mask3_1333_6629" style="mask-type:luminance" maskUnits="userSpaceOnUse" x="20" y="49" width="22" height="17">
<path d="M21.8301 53.1002C23.6388 50.8991 26.4419 49.7986 29.385 49.6017C31.7711 49.4447 34.254 49.8792 36.3726 50.8089C38.7406 51.8444 40.7237 53.5347 41.473 55.6213C42.187 57.6065 41.4946 59.9654 39.9044 61.9176C38.5576 63.5689 36.5746 64.9304 34.2575 65.5427C33.4183 65.763 32.5412 65.8844 31.633 65.8879C29.732 65.8923 27.6704 65.3329 25.8178 64.4058C23.4773 63.2298 21.4736 61.4701 20.5723 59.5318C20.0509 58.4208 19.8963 57.2483 20.2442 56.0974C20.6008 54.9327 21.1473 53.9354 21.8301 53.1002Z" fill="white"/>
</mask>
<g mask="url(#mask3_1333_6629)">
<path fill-rule="evenodd" clip-rule="evenodd" d="M29.3853 49.6051C29.9817 49.5661 30.5845 49.5633 31.1861 49.5962L31.1861 49.5964C31.7873 49.6297 32.3874 49.6984 32.9797 49.8009C33.7389 50.7423 34.5554 51.8462 35.286 53.0112L35.2856 53.0112C35.6506 53.5935 35.9938 54.1913 36.2985 54.7914C35.5098 54.9183 34.7035 55.0516 33.8958 55.1869L33.8961 55.1876C34.7034 55.0523 35.5094 54.919 36.2977 54.7923C36.6019 55.3921 36.8678 55.9945 37.076 56.5867L37.0782 56.5862C36.8701 55.9943 36.6043 55.3922 36.3002 54.7927C37.0898 54.6652 37.8619 54.5445 38.6001 54.434C38.2938 53.8825 37.9362 53.3376 37.537 52.8198V52.8195L37.5363 52.8195C37.935 53.337 38.2924 53.8814 38.5988 54.4327C37.8607 54.5432 37.0885 54.6639 36.2989 54.7914C35.9942 54.1913 35.651 53.5935 35.286 53.0112L35.2879 53.011C34.5574 51.8461 33.741 50.7422 32.9818 49.8009C34.1655 50.0063 35.3163 50.3471 36.3756 50.8117C37.5598 51.3295 38.6473 52.0114 39.533 52.824C39.2516 52.8034 38.9547 52.7931 38.6451 52.7917C38.9542 52.7936 39.2507 52.8039 39.5317 52.8245C40.4169 53.6376 41.1001 54.5817 41.4749 55.6246L41.4758 55.6244C41.8322 56.617 41.838 57.7027 41.5555 58.7847C41.555 58.7849 41.5546 58.7852 41.5542 58.7854C41.2713 59.8673 40.701 60.9457 39.9056 61.9217C39.2326 62.7463 38.4015 63.4986 37.4487 64.1215C37.4485 64.1224 37.4483 64.1233 37.448 64.1242C36.9712 64.4363 36.4638 64.7153 35.9309 64.955C35.9085 64.7024 35.8863 64.4355 35.8631 64.157L35.8631 64.1569C35.7878 63.2531 35.7024 62.227 35.5667 61.1726C36.3059 60.9544 37.0487 60.7094 37.7668 60.4488C37.7668 60.4483 37.7667 60.4478 37.7667 60.4472C38.4855 60.1862 39.1795 59.9095 39.8205 59.6285C39.888 58.5625 39.7712 57.4872 39.5022 56.5444C39.6143 56.9374 39.6998 57.3535 39.7568 57.7824L39.7551 57.7829C39.8345 58.3825 39.8577 59.0074 39.8188 59.6291C39.1781 59.9098 38.4849 60.1862 37.7667 60.4471L37.7667 60.4472C37.048 60.7081 36.3045 60.9533 35.5646 61.1718C35.4761 60.482 35.3657 59.7799 35.2227 59.0917C36.0118 58.8906 36.7927 58.6721 37.5522 58.4499L37.5522 58.4497L37.5538 58.4492C37.4397 57.7958 37.2822 57.1658 37.0796 56.5876L37.0793 56.5876C37.2818 57.1658 37.4393 57.7956 37.5534 58.4489C36.7939 58.6711 36.0129 58.8897 35.2239 59.0908L35.224 59.0913L35.2224 59.0917C35.3653 59.7797 35.4757 60.4817 35.5642 61.1714C34.8244 61.3895 34.0875 61.5808 33.3827 61.7337C33.2166 61.0383 33.0388 60.3287 32.8453 59.6278L32.8469 59.6275C32.6534 58.9267 32.4448 58.235 32.218 57.5753C33.0478 57.423 33.8725 57.2611 34.6839 57.0948C34.4609 56.4538 34.1892 55.8189 33.8925 55.1884L33.8924 55.1884C34.189 55.8186 34.4606 56.4534 34.6836 57.0942C33.8712 57.2607 33.0455 57.4228 32.2146 57.5753C31.9853 56.9117 31.7354 56.2524 31.4795 55.5943L31.4833 55.5937C31.3741 55.3133 31.2639 55.0331 31.1537 54.7529L31.1535 54.7524C31.0051 54.3751 30.8566 53.9976 30.7106 53.6193C31.1292 53.5629 31.5627 53.5023 32.0056 53.4403L32.0058 53.4403C32.3172 53.3968 32.6333 53.3526 32.9519 53.3088L32.9516 53.3082C32.6325 53.3521 32.316 53.3963 32.0042 53.4399C31.5612 53.5018 31.1275 53.5624 30.7089 53.6188L30.6705 53.519C29.7497 53.6134 28.8306 53.7278 27.9221 53.87C27.7409 53.2361 27.6077 52.5633 27.4985 51.8923C26.6855 52.0328 25.8869 52.2126 25.1151 52.4414C25.1313 52.849 25.1594 53.2634 25.1865 53.6655C25.2032 53.9121 25.2196 54.1541 25.2327 54.387L25.2327 54.387L25.2327 54.3878L25.2335 54.3876C25.2205 54.1571 25.2043 53.9176 25.1877 53.6737L25.1877 53.6735C25.1603 53.2691 25.1321 52.8521 25.1159 52.442C25.8874 52.2133 26.6853 52.0338 27.4981 51.8932C27.6072 52.5641 27.7403 53.2366 27.9214 53.8703C28.8301 53.7281 29.7493 53.6138 30.6701 53.5193C30.8237 53.9188 30.9805 54.3173 31.1372 54.7156L31.1372 54.7157L31.1373 54.7158C31.246 54.9921 31.3547 55.2683 31.4622 55.5448L31.1486 55.5888C30.305 55.7073 29.4442 55.8281 28.578 55.9576C28.3396 55.2448 28.1132 54.5321 27.9211 53.8713L27.9205 53.8714C28.1126 54.5323 28.3391 55.2453 28.5775 55.9583C29.4431 55.8288 30.3032 55.7081 31.1462 55.5897L31.1464 55.5897L31.4601 55.5456C31.7227 56.2201 31.9793 56.8958 32.2145 57.5757L32.2146 57.5757C32.4414 58.2353 32.65 58.9268 32.8434 59.6275L32.844 59.6274C33.0376 60.3282 33.2154 61.0379 33.3815 61.7333C32.3763 61.9469 31.1404 62.1314 30.0957 62.2212L30.0959 62.2218C31.1409 62.1319 32.3772 61.9474 33.3827 61.7337L33.3829 61.7343C34.0872 61.5814 34.8236 61.3902 35.5629 61.1722C35.6515 61.8616 35.7189 62.5394 35.7758 63.1784L35.7766 63.1782C35.8067 63.5154 35.8339 63.8421 35.8599 64.1543L35.86 64.1547V64.1547C35.8832 64.4337 35.9055 64.7011 35.928 64.9542C35.3953 65.1937 34.8375 65.3935 34.2585 65.5468L34.2587 65.5474C33.4194 65.7676 32.5418 65.8884 31.6338 65.8926C31.3703 65.3637 31.1093 64.7815 30.8522 64.1636C31.8034 64.1323 32.9555 63.9718 33.847 63.7538L33.8469 63.7534L33.846 63.7536L33.8459 63.7531C32.9545 63.971 31.8028 64.1319 30.8518 64.1627C30.5947 63.5454 30.3415 62.8925 30.0935 62.2222C28.94 62.3237 27.6464 62.371 26.3591 62.374C26.0083 61.7781 25.683 61.1612 25.3891 60.5497C25.0954 59.9384 24.8337 59.3322 24.6103 58.7565L24.6083 58.7568C24.8317 59.3325 25.0934 59.9385 25.387 60.5497L25.3866 60.5497C25.6805 61.1612 26.0058 61.7781 26.3565 62.374C25.0679 62.374 23.7856 62.3358 22.6559 62.2584C22.2026 61.8438 21.7947 61.4051 21.4435 60.949L21.4439 60.949C21.0932 60.4933 20.7989 60.0194 20.5735 59.5347L20.5735 59.5347C20.3127 58.9793 20.1432 58.4088 20.0828 57.8332C20.947 57.5342 21.8545 57.275 22.7886 57.046C22.9525 57.7126 23.2075 58.3756 23.4641 58.9505L23.4645 58.9504C23.2079 58.3755 22.9529 57.7126 22.7891 57.046C23.7226 56.817 24.6821 56.6181 25.6523 56.4403L25.6521 56.44L25.6529 56.4398L25.6528 56.4392C23.7117 56.7954 21.8105 57.2344 20.0823 57.8323C20.0219 57.2564 20.0702 56.6759 20.2446 56.1004L20.2447 56.1003C20.6009 54.9358 21.1479 53.9386 21.8309 53.1035C22.7351 52.0029 23.888 51.1777 25.1826 50.6025L25.1825 50.6028C26.4774 50.0282 27.9139 49.7039 29.3849 49.6052C29.5481 50.2703 29.7457 50.9268 29.9639 51.5784L29.9644 51.5783C29.746 50.9266 29.5485 50.2706 29.3853 49.6051ZM32.0018 51.4472C31.7211 50.8733 31.4599 50.3012 31.2371 49.729C31.4601 50.3012 31.7214 50.8736 32.002 51.4474C31.5145 51.4873 31.0365 51.5316 30.5783 51.5741L30.5783 51.5741L30.5782 51.5741C30.3757 51.5929 30.1771 51.6114 29.9832 51.6289L29.9831 51.6287C30.181 51.6108 30.3837 51.592 30.5905 51.5728L30.5906 51.5727C31.045 51.5305 31.5187 51.4865 32.0018 51.4472ZM28.7062 65.5004L28.7057 65.5C27.7226 65.2446 26.7453 64.8736 25.8199 64.4109C24.6496 63.8227 23.5634 63.0888 22.6575 62.2597C23.7865 62.3368 25.0678 62.3782 26.3555 62.3753L26.3553 62.3748C27.6435 62.3748 28.938 62.3245 30.0922 62.2228C30.5884 63.5631 31.1055 64.8343 31.6321 65.8926C30.6815 65.8926 29.691 65.7553 28.7062 65.5004Z" fill="url(#paint1_radial_1333_6629)"/>
</g>
</g>
<path d="M30.2603 46.5374C30.5978 48.0317 32.2519 48.9293 33.9561 48.5416C35.6594 48.1531 36.767 46.6258 36.4295 45.1316C36.0919 43.6373 34.437 42.7397 32.7337 43.1282C31.0303 43.5167 29.9227 45.0422 30.2603 46.5374Z" fill="#422D1E"/>
<path d="M28.8648 40.29C28.958 40.2692 29.0461 40.2189 29.1134 40.1408C30.4913 38.5728 33.1667 38.3049 33.1926 38.3014C33.4541 38.2754 33.6432 38.0464 33.619 37.7863C33.5949 37.5252 33.3652 37.3335 33.1062 37.3569C32.981 37.3682 30.0346 37.6579 28.4064 39.5138C28.2328 39.7098 28.2518 40.0099 28.4478 40.1825C28.5661 40.2883 28.7215 40.323 28.8648 40.29Z" fill="#422D1E"/>
<path d="M30.8861 45.2187C30.9759 45.616 31.3695 45.8657 31.7667 45.7755C32.1638 45.6845 32.4115 45.289 32.3218 44.8909C32.2311 44.492 31.8375 44.2431 31.4403 44.3333C31.0441 44.4235 30.7954 44.8189 30.8861 45.2187Z" fill="#FDF6ED"/>
<path d="M60.0474 39.7502C60.3849 41.2454 59.2782 42.7717 57.574 43.1603C55.8707 43.5479 54.2157 42.6503 53.8782 41.156C53.5406 39.6618 54.6483 38.1354 56.3524 37.7468C58.0557 37.3592 59.7098 38.2559 60.0474 39.7502Z" fill="#422D1E"/>
<path d="M58.6255 33.5096C58.7688 33.4775 58.894 33.3787 58.9553 33.2321C59.058 32.9919 58.9458 32.7126 58.7058 32.6111C56.4404 31.6424 53.6554 32.658 53.538 32.7022C53.2945 32.7933 53.1702 33.0656 53.26 33.311C53.3507 33.5564 53.6217 33.6813 53.8661 33.592C53.892 33.5833 56.4197 32.6649 58.3371 33.4827C58.4312 33.5235 58.5322 33.5313 58.6255 33.5096Z" fill="#422D1E"/>
<path d="M56.1932 39.4531C56.2829 39.8503 56.0343 40.2466 55.6381 40.3368C55.2409 40.427 54.8464 40.1772 54.7566 39.78C54.6668 39.3811 54.9155 38.9847 55.3126 38.8945C55.7089 38.8043 56.1025 39.0541 56.1932 39.4531Z" fill="#FDF6ED"/>
<path d="M48.5787 53.6697C50.9217 53.1355 52.2995 51.0324 52.3574 50.9422C52.5697 50.6126 52.4756 50.1721 52.1476 49.9587C51.8195 49.7454 51.3818 49.8391 51.1695 50.1677C51.0693 50.3212 48.6719 53.9021 45.0995 51.5657C44.7706 51.3524 44.3312 51.4452 44.1188 51.7739C43.9056 52.1034 43.9988 52.544 44.326 52.7582C45.7185 53.6688 47.1274 53.9802 48.5139 53.6836C48.5355 53.6792 48.5562 53.6749 48.5787 53.6697Z" fill="#F14C5F"/>
<path d="M40.8839 10.3498C41.9907 10.7913 43.0638 11.3368 43.9919 12.0757C45.5855 13.3436 46.6871 15.1397 47.3449 17.0537C48.0028 18.9669 48.2402 21.0006 48.3162 23.0248C48.3516 23.9753 48.349 24.9484 48.0382 25.8521C47.7654 26.6439 47.2673 27.3463 46.707 27.976C43.9219 31.1094 39.305 32.5941 35.2483 31.5274C34.4419 31.3149 33.6399 30.9975 33.0391 30.4303C32.2698 29.7035 31.915 28.6524 31.694 27.623C31.5568 26.9847 31.4635 26.3056 31.6854 25.6864C31.9073 25.0681 32.5375 24.5425 33.1936 24.6422C32.5271 25.2181 32.6117 26.3837 33.2955 26.9266C33.9783 27.4695 35.0661 27.3689 35.7248 26.7852C36.3844 26.2016 36.6157 25.2337 36.4068 24.3916C36.3309 24.0863 36.1962 23.7845 35.9545 23.579C35.585 23.265 35.0488 23.2381 34.5576 23.2512C32.3657 23.3093 29.9173 23.7845 28.1838 22.481C27.1919 21.7352 26.6523 20.5089 26.5452 19.28C26.4373 18.0511 26.7214 16.8152 27.1323 15.6445C29.1257 9.95612 35.6143 8.24328 40.8839 10.3498Z" fill="#866447"/>
<path d="M38.9277 29.1038C39.1029 29.0639 39.2782 29.0188 39.4543 28.9711C40.189 28.7673 41.2534 28.4022 42.0036 27.5861C42.5363 27.0041 42.8955 26.2254 43.1001 25.2055C43.3116 24.1465 43.2977 23.1657 43.0577 22.2897C42.6002 20.6159 41.2603 19.165 39.3844 18.3082C37.7484 17.5615 35.9173 17.3342 34.1812 17.1989C32.6039 17.0758 30.791 17.0177 29.2681 17.8693C29.0523 17.9907 28.9754 18.2639 29.0954 18.4799C29.2154 18.6958 29.4874 18.7713 29.7024 18.6533C31.0077 17.9205 32.6635 17.9795 34.113 18.0922C36.0244 18.2405 37.5895 18.4729 39.0149 19.1234C40.6258 19.8597 41.8163 21.1319 42.1979 22.5265C42.3999 23.2671 42.4094 24.1084 42.2255 25.0294C42.0537 25.8837 41.7671 26.5211 41.3475 26.9781C40.8952 27.4716 40.2175 27.8298 39.2177 28.1073C37.669 28.5383 36.1668 28.5912 34.8606 28.2704C34.669 28.2227 34.4497 28.1602 34.2762 28.0535C33.5346 27.5974 33.2022 27.3693 33.1047 26.75C33.0658 26.5046 32.837 26.339 32.5936 26.3771C32.3553 26.4118 32.1852 26.6468 32.2241 26.8905C32.3907 27.9434 33.0477 28.3484 33.8091 28.8176C34.0871 28.9884 34.3893 29.0769 34.6483 29.1411C35.951 29.4611 37.4212 29.4472 38.9277 29.1038Z" fill="#6A4B37"/>
<path d="M41.2323 30.2732C45.1223 29.3878 45.9416 26.9881 46.2395 26.1191C46.2671 26.0384 46.2887 25.9734 46.3076 25.9283C46.6314 25.1998 46.9102 23.7913 46.8809 23.0308C46.7756 20.2469 46.1289 18.1334 44.903 16.568C44.2279 15.7059 43.3042 14.9367 42.1586 14.2819C38.5474 12.2187 33.9692 12.0452 30.2104 13.8231C29.9876 13.9289 29.8918 14.196 29.9971 14.4198C30.1025 14.6427 30.3658 14.7415 30.5902 14.634C34.0935 12.9749 38.354 13.1397 41.7183 15.0607C42.7629 15.6582 43.5986 16.3512 44.2029 17.1222C45.3071 18.5332 45.8915 20.4767 45.99 23.0646C46.0133 23.6942 45.7629 24.9561 45.4935 25.564C45.4651 25.6265 45.434 25.7158 45.396 25.8277C45.0662 26.7903 44.1865 29.3444 39.0472 29.6774C38.0587 29.7407 35.714 29.0504 35.0725 28.3922C34.9016 28.2135 34.6193 28.2126 34.4423 28.3843C34.2662 28.5578 34.2636 28.8414 34.4354 29.0183C35.3393 29.948 37.9845 30.6435 39.1042 30.5707C39.9002 30.5195 40.6055 30.4163 41.2323 30.2732Z" fill="#6A4B37"/>
<path d="M10.7103 52.3221C10.8338 54.3809 11.7998 56.3756 13.3374 57.7424C13.6974 58.0625 14.0919 58.3521 14.5399 58.5256C15.5725 58.9271 16.7293 58.6669 17.8041 58.4042C17.9043 58.379 18.0165 58.3461 18.064 58.2541C18.0985 58.1882 18.089 58.1084 18.0761 58.0347C17.9569 57.3392 17.6047 56.7095 17.2594 56.0946C16.1768 54.1711 15.146 51.1643 13.567 49.6301C11.944 48.0534 10.3503 50.7281 10.7103 52.3221Z" fill="#F6895A"/>
<path fill-rule="evenodd" clip-rule="evenodd" d="M3.67166 84.6527C1.91138 82.9182 0.00778034 80.7752 0.402313 78.3416C0.431033 78.1676 8.70206 76.8652 16.9293 75.5696C24.2821 74.4118 31.5999 73.2595 32.9681 72.923C43.8699 70.2415 54.5612 66.7152 64.9131 62.3876C66.3236 61.798 67.9 60.9567 69.5485 60.077C76.117 56.5716 83.8285 52.4563 86.7367 61.222C89.3017 68.9545 88.7486 79.0204 88.2602 87.9075C88.1369 90.1501 88.0178 92.3177 87.954 94.3538C87.5594 106.891 85.4452 121.227 78.4541 131.691C78.0777 132.255 77.6538 132.833 77.0314 133.109C76.2794 133.442 75.4083 133.264 74.6089 133.068C46.3675 126.143 24.2935 104.98 3.67166 84.6527ZM45.9668 73.2833C46.1234 73.1731 46.3994 73.0242 46.5624 72.9629C46.6367 72.9349 46.7088 72.9144 46.7221 72.9184C46.7976 72.9409 47.0843 73.4358 47.1917 73.7315C47.4317 74.3952 47.4735 75.0321 47.3273 75.8199C47.284 76.048 47.1205 76.5896 47.0327 76.7883C46.8357 77.2309 46.6694 77.4773 46.2202 77.9886C46.1232 78.0988 46.0667 78.1757 46.0561 78.2114C46.0398 78.2663 46.0413 78.2668 46.0913 78.272C46.1178 78.2751 46.3667 78.2394 46.6411 78.1935C47.4463 78.0571 47.9444 78.0392 48.5711 78.1196C48.7757 78.1467 48.8863 78.17 49.2091 78.2599C49.6334 78.3769 49.8144 78.4455 50.1268 78.6035C50.6572 78.8735 51.1876 79.2632 51.5709 79.6656C51.7758 79.8821 52.0617 80.2327 52.1917 80.4301C52.4234 80.7791 52.5835 81.076 52.7532 81.4713C52.7658 81.4993 52.8102 81.6161 52.851 81.7286C53.3092 82.988 53.3574 84.3871 52.9919 85.8455C52.5976 87.423 51.6751 88.8752 50.245 90.1709C49.9742 90.4168 49.4234 90.8525 49.0087 91.1492C48.981 91.1688 48.9489 91.1916 48.9198 91.2123C48.8914 91.2325 48.8658 91.2507 48.8498 91.2619C48.4509 91.5488 48.09 91.7727 47.5312 92.083C47.3307 92.1946 47.16 92.2925 47.1563 92.2995C47.1507 92.3075 47.1617 92.314 47.1837 92.3157C47.1937 92.3162 47.2352 92.3194 47.293 92.3238C47.3455 92.3278 47.4116 92.3329 47.4799 92.3379C48.8906 92.4518 50.3978 92.2289 51.5382 91.7379C51.7062 91.6652 52.1566 91.4276 52.303 91.3354C53.0604 90.8547 53.8205 90.0706 54.3873 89.1836C54.9123 88.3617 55.3008 87.5168 55.6357 86.4667C55.8232 85.8821 55.8889 85.5782 55.9875 84.8425C56.0048 84.7021 56.0235 84.5847 56.0269 84.5841C56.0422 84.5757 56.1968 84.761 56.3079 84.9187C56.6578 85.4179 56.9053 86.0451 57.0265 86.7348C57.1678 87.5308 57.1259 88.3417 56.8985 89.3009C56.655 90.325 56.1787 91.1566 55.3988 91.9202C55.0935 92.2172 54.7447 92.4981 54.3166 92.786C54.0857 92.9403 53.3932 93.3271 53.1454 93.4408C53.0794 93.4702 52.9979 93.5071 52.9507 93.5285L52.9317 93.5371C52.5795 93.6989 52.0316 93.896 51.5604 94.0303C51.4883 94.0508 51.4782 94.0575 51.4978 94.0731C51.5304 94.099 52.191 94.2607 52.4602 94.3087C53.1814 94.4399 53.9183 94.4804 54.5757 94.4244C54.8397 94.4029 55.3645 94.3056 55.6093 94.2347C56.4747 93.982 57.088 93.6071 57.7571 92.9188C58.4417 92.2157 58.9551 91.3677 59.3385 90.3061C59.492 89.8797 59.6489 89.2406 59.7045 88.8188L59.7083 88.7905C59.7172 88.7238 59.7243 88.6703 59.7258 88.6651C59.743 88.6071 60.2138 89.4594 60.3447 89.7897C60.6341 90.5151 60.7543 91.1155 60.734 91.7339C60.7232 92.0154 60.6979 92.1825 60.6238 92.471C60.5113 92.9 60.3768 93.1915 60.1133 93.5706C59.6973 94.171 59.2291 94.6702 58.7302 95.0502C58.2213 95.4369 57.655 95.7127 57.1554 95.8175C57.0817 95.8326 57.0206 95.8484 57.0193 95.8528C57.018 95.8573 57.0835 95.8753 57.1648 95.8947C58.0138 96.0835 58.8192 96.1153 59.5466 95.9863C59.9239 95.9194 60.1913 95.8375 60.513 95.6861C61.1691 95.3789 61.7753 94.7835 62.1484 94.0828C62.3996 93.6095 62.5863 93.0004 62.6328 92.495C62.6407 92.4084 62.6477 92.3247 62.6477 92.3085C62.6472 92.2502 62.6935 92.3222 62.8071 92.5535C62.9542 92.8563 63.0261 93.0379 63.1161 93.3268C63.3447 94.0615 63.3596 94.7405 63.1594 95.3246C62.8789 96.1418 62.4326 96.785 61.937 97.0884L61.8681 97.1309L61.9328 97.1243C61.9679 97.1202 62.0379 97.112 62.0899 97.1049C62.6362 97.0383 63.3248 97.0676 63.9679 97.1852C64.2549 97.2386 65.0111 97.4692 65.2381 97.5726C65.9273 97.8884 66.5009 98.3169 67.0082 98.8938C67.0903 98.9863 67.2945 99.243 67.3158 99.2801C67.3224 99.2901 67.3517 99.3329 67.3813 99.3741C67.4125 99.4157 67.4588 99.4878 67.4867 99.5349L67.5373 99.6196L67.4344 99.6681C67.2767 99.744 66.9557 99.8601 66.7148 99.9288C66.1114 100.101 65.5147 100.164 64.9272 100.12C63.8218 100.036 62.5395 99.5038 61.6296 98.7533C61.5316 98.6707 61.4469 98.6033 61.4439 98.6024C61.4395 98.6011 61.4571 98.6452 61.4832 98.6983C61.734 99.2277 61.7416 100.105 61.5037 100.909C61.4105 101.224 61.3617 101.329 61.1814 101.612C60.8437 102.144 60.2729 102.653 59.6321 102.995C59.5261 103.052 59.4788 103.079 59.4704 103.07C59.4631 103.062 59.4847 103.028 59.5226 102.962C59.5863 102.85 59.6841 102.629 59.7721 102.392C60.102 101.505 60.1091 100.512 59.7936 99.6302C59.6668 99.2753 59.3816 98.8132 59.097 98.5018C58.6862 98.0507 58.0481 97.5949 57.3993 97.2895C57.1846 97.1882 56.8687 97.0583 56.7622 97.0265L56.672 96.9996L56.7649 97.0936C57.4314 97.7634 57.8947 98.9079 58.0043 100.154C58.0329 100.476 58.0387 100.848 58.0202 101.074C58.0044 101.264 57.9878 101.352 57.9261 101.588C57.8796 101.762 57.8265 101.93 57.788 102.022C57.4704 102.78 56.8844 103.438 56.0295 103.998C55.8664 104.103 55.4415 104.342 55.2832 104.414C55.1393 104.481 55.0342 104.521 55.0377 104.509C55.0399 104.502 55.0696 104.439 55.103 104.37C55.2987 103.964 55.569 103.149 55.6595 102.691C55.8545 101.694 55.8766 100.89 55.7289 100.018C55.6269 99.4213 55.4744 98.9406 55.2471 98.5007C54.6426 97.3383 53.4994 96.3968 51.9016 95.7449C51.6516 95.6428 51.0694 95.4447 51.0645 95.461C51.0632 95.4655 51.0929 95.5067 51.1314 95.5506C51.4842 95.9584 51.7979 96.3837 52.0993 96.8619C52.2728 97.1353 52.5708 97.6902 52.6863 97.9528C52.7184 98.0238 52.7464 98.0872 52.7495 98.093C52.7918 98.1622 52.9896 98.7017 53.0576 98.9291C53.4325 100.193 53.4196 101.292 53.0147 102.427C52.5668 103.679 51.94 104.584 51.0709 105.235C50.794 105.442 50.5486 105.585 50.2041 105.743C50.0863 105.798 49.7267 105.914 49.7194 105.901C49.7159 105.896 49.7532 105.814 49.7994 105.718C50.1191 105.056 50.2425 104.737 50.4044 104.146C50.4752 103.891 50.5617 103.549 50.5963 103.383C50.9806 101.589 50.9238 99.9419 50.4327 98.5869C50.2561 98.1006 49.964 97.575 49.6117 97.1059C48.9744 96.2556 48.0421 95.4498 46.9776 94.8246C46.7251 94.6764 46.5014 94.5562 46.4884 94.5621C46.4861 94.5646 46.5369 94.6704 46.6045 94.7957C47.0206 95.588 47.2054 95.9975 47.5208 96.8309C47.9164 97.8776 48.152 98.8716 48.238 99.8598C48.3124 100.73 48.27 101.51 48.1052 102.311C48.053 102.564 47.865 103.194 47.7673 103.448C47.166 105.012 46.1683 106.223 44.8767 106.959C43.6953 107.632 42.3504 107.856 41.0652 107.595C40.8209 107.545 40.3169 107.381 40.0879 107.279C39.4515 106.992 38.9571 106.644 38.2679 105.996C37.9636 105.713 37.9148 105.682 37.8995 105.767C37.89 105.82 37.8992 105.909 37.9472 106.242C38.0193 106.728 38.017 107.062 37.9423 107.51C37.8861 107.853 37.6795 108.48 37.5172 108.805C37.1758 109.491 36.6577 110.045 36.0482 110.374C35.8793 110.466 35.6133 110.576 35.5823 110.567C35.5394 110.554 35.3531 110.264 35.2339 110.024C34.9265 109.403 34.8292 108.698 34.9398 107.884C34.981 107.576 35.1846 106.871 35.3047 106.618C35.4925 106.222 35.6551 105.983 36.0176 105.569C36.132 105.438 36.2348 105.308 36.2461 105.281C36.2803 105.193 36.2339 105.192 35.7706 105.272C35.2529 105.361 35.0082 105.389 34.6696 105.401C33.996 105.424 33.4451 105.349 32.8437 105.15C32.3954 105 32.0123 104.814 31.6283 104.556C30.9072 104.07 30.3363 103.458 29.8932 102.692C29.1971 101.491 28.9286 99.9982 29.1429 98.5012C29.2162 97.9812 29.3944 97.2757 29.563 96.8311C30.0195 95.6312 30.7765 94.5259 31.8279 93.5248C32.15 93.2198 32.6468 92.8036 32.9874 92.5559C33.0192 92.5333 33.0706 92.496 33.1234 92.4577C33.1584 92.4323 33.194 92.4065 33.225 92.3842C33.2992 92.3302 33.3364 92.303 33.374 92.2761C33.4226 92.2414 33.4716 92.2073 33.602 92.1166C33.997 91.8431 34.1899 91.7244 34.8249 91.3688C35.0043 91.2687 35.1489 91.1825 35.1473 91.1772C35.1344 91.1555 34.5275 91.1167 34.1724 91.1141C33.7929 91.1124 33.2127 91.1414 32.9691 91.1754C32.9448 91.1794 32.8978 91.1857 32.8432 91.1931C32.7953 91.1996 32.7415 91.2069 32.692 91.214C32.1601 91.2865 31.5895 91.4299 31.1012 91.6109C30.486 91.8397 29.9 92.171 29.4427 92.5521C28.2617 93.534 27.3787 94.9235 26.7369 96.8041C26.5056 97.4824 26.3863 98.0161 26.3043 98.7503C26.2945 98.838 26.2832 98.909 26.2787 98.9077C26.2595 98.9019 26.0835 98.686 26.0004 98.5641C25.9506 98.4927 25.8562 98.3383 25.7898 98.2198C25.2043 97.173 25.0489 95.8422 25.3493 94.4243C25.4063 94.1502 25.5721 93.5898 25.6572 93.3839C26.0873 92.3331 26.8465 91.4598 28.0011 90.6868C28.2678 90.5092 28.9822 90.1192 29.3071 89.9735C29.7779 89.7647 30.2571 89.5875 30.6269 89.486C30.7319 89.4575 30.8198 89.4272 30.8235 89.4202C30.8257 89.4127 30.7008 89.3722 30.5185 89.3243C29.0643 88.9385 27.6073 88.9321 26.4846 89.3087C26.0929 89.4408 25.6118 89.6789 25.3298 89.881C24.2718 90.6376 23.4226 91.8367 22.9485 93.2431C22.7797 93.7428 22.6469 94.2951 22.5852 94.7701L22.5761 94.8337L22.5108 94.7333C22.4753 94.679 22.4176 94.5858 22.3838 94.5256C22.3497 94.4668 22.3136 94.4092 22.305 94.4001C22.295 94.3906 22.2251 94.2565 22.1498 94.103C21.6833 93.1598 21.4989 92.27 21.5947 91.4348C21.6268 91.1467 21.7711 90.6592 21.8974 90.4009C22.1984 89.792 22.8836 88.9726 23.4831 88.503C24.0465 88.063 24.6634 87.7522 25.1567 87.6633C25.2232 87.6508 25.2804 87.6372 25.2821 87.6312C25.2861 87.6178 24.9559 87.5419 24.7423 87.5072C23.7348 87.3423 22.8108 87.4012 22.0604 87.6786C21.8235 87.7664 21.4535 87.9665 21.2648 88.1091C20.7334 88.5118 20.3504 88.9846 20.0473 89.6171C20.0061 89.7019 19.9362 89.8946 19.8653 90.1177C19.7412 90.5044 19.6875 90.7569 19.6663 91.0515C19.6596 91.1287 19.6515 91.1942 19.6476 91.1963C19.6361 91.2026 19.4094 90.7499 19.3376 90.5732C19.2184 90.2852 19.1081 89.9013 19.0591 89.61C18.96 89.0142 18.9999 88.5312 19.187 88.0403C19.4775 87.2761 19.8579 86.7362 20.3262 86.4215C20.3821 86.3848 20.4251 86.354 20.4236 86.3535C20.4213 86.3528 20.3725 86.3587 20.3056 86.3667C20.2862 86.3691 20.2653 86.3716 20.2436 86.3742C19.8661 86.42 19.2786 86.4192 18.8594 86.3717C17.9982 86.2731 17.1765 86.0132 16.5609 85.6449C15.9178 85.2604 15.3565 84.7304 14.9227 84.1011C14.8509 83.9955 14.7877 83.899 14.7804 83.8855C14.7734 83.8656 14.8016 83.8465 14.9137 83.7943C15.711 83.429 16.7096 83.2758 17.5945 83.3816C18.1898 83.4542 18.9235 83.6846 19.5402 83.9949C19.9494 84.2012 20.4409 84.521 20.7273 84.7667C20.8569 84.8782 20.8957 84.8995 20.8485 84.8304C20.7602 84.6989 20.6401 84.2069 20.631 83.9275C20.6175 83.532 20.6591 83.1303 20.7633 82.6859C20.9322 81.9517 21.5397 81.1884 22.3756 80.66C22.4847 80.5906 22.8381 80.3921 22.8412 80.3978C22.8433 80.4017 22.8043 80.479 22.758 80.5703C22.4928 81.08 22.2934 81.8357 22.2813 82.3772C22.2573 83.4054 22.5734 84.2908 23.2092 84.9772C23.7641 85.5781 24.609 86.1183 25.4763 86.4307L25.6438 86.4904L25.5555 86.4026C24.792 85.6359 24.3189 84.3397 24.2773 82.9021C24.2647 82.4713 24.2866 82.2449 24.3731 81.9035C24.5341 81.2722 24.8828 80.6872 25.3985 80.1796C25.6522 79.9318 26.0941 79.5865 26.3819 79.4137C26.712 79.2178 27.2477 78.9475 27.2617 78.9711C27.2633 78.9764 27.2457 79.0197 27.2214 79.0691C26.9128 79.6984 26.6408 80.6395 26.5422 81.4189C26.3719 82.7673 26.5742 84.0862 27.1 85.052C27.6493 86.0637 28.6105 86.9023 29.9474 87.5377C30.3159 87.7124 31.1827 88.0376 31.223 88.0156C31.2364 88.0083 31.1955 87.9508 31.1052 87.8478C30.8048 87.5025 30.4294 86.986 30.1693 86.559C29.115 84.8271 28.7518 83.1431 29.1109 81.6682C29.2913 80.9279 29.6358 80.1281 30.0332 79.5253C30.1547 79.3432 30.4346 78.9852 30.5761 78.8333C31.1155 78.2567 31.7868 77.8166 32.4356 77.6156C32.51 77.5926 32.5764 77.5752 32.5823 77.5769C32.5933 77.5802 32.5881 77.5912 32.4448 77.8953L32.4096 77.9702C32.1643 78.489 32.0999 78.6574 31.9462 79.1826C31.7502 79.8504 31.6407 80.3563 31.5516 81.0059C31.3373 82.579 31.4926 84.0407 31.9983 85.1995C32.5336 86.427 33.6448 87.6129 35.12 88.5322C35.4031 88.7074 35.8 88.9278 35.8173 88.9184C35.8211 88.9163 35.7484 88.7701 35.6557 88.5936C35.4745 88.2483 35.2821 87.8592 35.1882 87.6484C35.1566 87.5758 35.1267 87.5135 35.1236 87.5078C35.1205 87.502 35.0471 87.3199 34.9614 87.1035C34.8284 86.7693 34.7573 86.5798 34.6288 86.2196C34.6185 86.189 34.5778 86.0652 34.5386 85.9419C34.106 84.5688 33.9461 83.2043 34.074 81.9775C34.2226 80.5611 34.7793 79.1696 35.6306 78.0828C35.7867 77.8819 36.1342 77.502 36.3021 77.3483C37.0654 76.6461 37.9694 76.1541 38.8868 75.9379C39.1999 75.8648 39.2853 75.8482 39.5422 75.8182C39.9863 75.7648 40.4894 75.7678 40.9241 75.828C41.2008 75.867 41.8192 76.0355 42.0732 76.1404C42.7504 76.4203 43.2727 76.772 43.9643 77.4169C44.3064 77.7358 44.3575 77.7753 44.3882 77.7586C44.4189 77.7419 44.4161 77.61 44.3797 77.3953C44.2571 76.6615 44.2859 76.1395 44.4852 75.4662C44.7693 74.5061 45.2632 73.7784 45.9668 73.2833ZM43.283 80.4487C43.1811 79.5253 42.6951 78.8383 41.8713 78.45C41.7156 78.3776 41.2829 78.2452 41.1051 78.2147C40.6981 78.1482 40.2613 78.1552 39.8184 78.2316C39.5872 78.2726 39.5577 78.28 39.3342 78.3443C38.9394 78.4593 38.5147 78.6593 38.2029 78.8751C37.6685 79.2445 37.1948 79.8003 36.8632 80.4421C36.6277 80.9008 36.4226 81.561 36.3401 82.1284C36.2138 83.0014 36.2673 83.92 36.4961 84.7956C36.6699 85.4654 37.1239 86.6686 37.4907 87.4316C37.4969 87.4432 37.529 87.5143 37.5642 87.5911C37.8055 88.1145 38.2082 88.9141 38.6045 89.6536C38.8619 90.1333 39.428 91.137 39.4763 91.1968C39.4891 91.2135 39.498 91.2323 39.4963 91.2383C39.4945 91.2442 39.3169 91.3384 39.1012 91.4471C38.6307 91.6819 37.265 92.4226 36.8722 92.6563C36.7165 92.7473 36.5368 92.8538 36.4722 92.8928C35.6753 93.3601 34.6325 94.0597 34.0659 94.5053C33.6231 94.8535 33.1732 95.2691 32.9249 95.5589C32.4845 96.0729 32.113 96.6591 31.8409 97.2686C31.7312 97.5141 31.4988 98.2778 31.4597 98.5298C31.3703 99.0822 31.3681 99.5523 31.4524 100.056C31.53 100.518 31.652 100.873 31.8712 101.275C32.4384 102.313 33.4736 103.098 34.4868 103.259C35.3401 103.396 36.0881 103.137 36.6773 102.501C37.0033 102.151 37.214 101.798 37.3333 101.4C37.4081 101.147 37.4297 101.003 37.4237 100.773C37.4171 100.513 37.3743 100.309 37.2726 100.065C37.1734 99.8234 36.952 99.5211 36.7772 99.3881C36.4872 99.1656 36.0179 99.1516 35.6354 99.3561C35.3709 99.4987 35.19 99.7456 35.0325 100.185L34.9667 100.37L34.8656 100.249C34.742 100.1 34.5815 99.8049 34.5243 99.6228C34.4304 99.3198 34.4065 99.0247 34.4487 98.6863C34.4761 98.4793 34.5848 98.1122 34.6697 97.9451C34.9411 97.4033 35.4478 97.0402 36.0802 96.933C36.4411 96.8726 36.6939 96.8834 36.9943 96.973C37.0963 97.0035 37.2136 97.0482 37.2549 97.0719C37.6172 97.2787 37.933 97.5445 38.2622 97.9178C38.3185 97.9832 38.3701 98.0374 38.3745 98.0387C38.3805 98.0405 38.4109 98.014 38.4439 97.9785L38.5029 97.9153L38.473 97.7495C38.3729 97.1954 38.3889 96.537 38.5183 95.9529C38.6021 95.5718 38.7312 95.2933 38.9736 94.9694C39.085 94.8215 39.405 94.469 39.5264 94.358C39.8097 94.1029 40.118 93.8553 40.375 93.678C40.5875 93.5312 40.6133 93.5146 40.6266 93.5186C40.6385 93.5221 40.7823 93.8579 40.8212 93.9714C40.8255 93.9837 40.8333 94.0046 40.8424 94.029C40.8533 94.0585 40.8663 94.0933 40.8774 94.1241C40.9928 94.4254 41.1319 94.962 41.183 95.3008C41.2435 95.7006 41.2436 96.0047 41.1872 96.3098C41.0765 96.8963 40.5868 97.7837 40.0934 98.2867L40.0188 98.3647L40.0289 98.4502C40.0358 98.4976 40.0449 98.5375 40.0509 98.5393C40.0568 98.541 40.1295 98.5239 40.2118 98.5016C40.7064 98.3646 41.0956 98.3174 41.4833 98.3458C42.0007 98.3822 42.5428 98.7269 42.8971 99.2436C43.2607 99.7728 43.3205 100.436 43.0614 101.072C42.8331 101.632 42.508 101.995 42.0396 102.218C41.9006 102.285 41.6838 102.359 41.6557 102.351C41.6409 102.346 41.6457 102.314 41.6743 102.217C41.7517 101.956 41.7776 101.612 41.7337 101.407C41.6781 101.138 41.459 100.844 41.1944 100.683C41.0604 100.602 40.8375 100.539 40.7039 100.544C40.3191 100.561 39.8578 100.792 39.5483 101.125C39.2318 101.465 39.0545 101.885 39.0109 102.402C38.9733 102.85 39.0457 103.378 39.1924 103.742C39.2439 103.868 39.3759 104.113 39.4538 104.225C40.0161 105.035 41.107 105.435 42.3119 105.276C42.9873 105.186 43.5849 104.957 44.1396 104.579C44.5757 104.281 45.0252 103.779 45.3259 103.253C45.898 102.256 46.1277 101.022 45.9948 99.6752C45.8873 98.5965 45.3481 97.088 44.3421 95.0567C44.0938 94.5572 43.3767 93.2204 43.1003 92.7448C43.0757 92.7021 43.0502 92.6581 43.0256 92.6154C42.9565 92.496 42.8932 92.3867 42.8684 92.3423L42.8053 92.2345L42.9153 92.1784C44.0872 91.5917 45.5124 90.8024 46.2947 90.3081C46.332 90.2847 46.3817 90.2533 46.435 90.2197C46.5116 90.1713 46.5956 90.1183 46.6608 90.0777C47.045 89.8349 47.5676 89.4782 47.9119 89.2235C48.7992 88.5648 49.3284 88.0499 49.7989 87.3848C50.6774 86.1411 51.0561 84.7579 50.8664 83.4832C50.8243 83.1956 50.7147 82.7989 50.6128 82.5662C50.2256 81.6709 49.5379 80.9366 48.6732 80.4956C48.5614 80.438 48.4611 80.4015 48.1711 80.315C47.7594 80.1936 47.6406 80.176 47.2904 80.1895C47.0626 80.1975 46.9169 80.2219 46.7046 80.2863C46.2239 80.4307 45.8135 80.7239 45.467 81.1656C45.2115 81.4904 45.0689 81.7601 44.9682 82.1004C44.8595 82.4675 44.8497 82.7784 44.9341 83.119C45.0392 83.5419 45.3199 83.9703 45.6009 84.1415C45.7823 84.2523 46.0577 84.2957 46.299 84.2529C46.7806 84.1654 47.0627 83.8922 47.2604 83.322L47.3318 83.1136L47.3884 83.1725C47.6165 83.4137 47.7815 83.7542 47.8436 84.1157C47.9077 84.4923 47.8877 84.7775 47.7694 85.1773C47.6361 85.6277 47.4364 85.9271 47.1009 86.1796C46.6886 86.49 46.0835 86.6409 45.5629 86.5664C45.3917 86.5411 45.0839 86.433 44.9518 86.3515C44.6289 86.1532 44.2698 85.8373 43.9914 85.505L43.9283 85.4296L43.8773 85.4823C43.8093 85.5542 43.8049 85.5691 43.8294 85.7042C43.9888 86.5913 43.8603 87.6675 43.5347 88.2076C43.2269 88.7142 42.8023 89.1536 42.1286 89.6561C41.8764 89.8445 41.6992 89.9646 41.6799 89.9589C41.6637 89.954 41.5503 89.684 41.4464 89.4039C41.291 88.9822 41.148 88.4315 41.1087 88.0963C41.0422 87.5264 41.076 87.1839 41.2411 86.7511C41.457 86.1847 41.7909 85.6438 42.1887 85.2191L42.2874 85.1143L42.2756 85.0234L42.2638 84.9326L42.1197 84.9736C41.7809 85.0682 41.4196 85.1302 41.1313 85.1411C40.8401 85.1512 40.7823 85.1453 40.5026 85.0618C40.2674 84.9916 40.2317 84.976 40.1076 84.9002C39.9351 84.792 39.863 84.7365 39.7112 84.5909C39.5 84.3904 39.3419 84.1684 39.2367 83.9251C39.055 83.5053 39.0361 83.0904 39.177 82.6196C39.2768 82.2823 39.4052 82.0278 39.5958 81.7919C39.845 81.483 40.2021 81.245 40.5574 81.1489L40.662 81.1219L40.6187 81.3063C40.5261 81.7009 40.5243 81.9899 40.6169 82.2214C40.7046 82.4417 40.9299 82.6982 41.1297 82.8064C41.256 82.8749 41.4409 82.9301 41.5573 82.9341C41.7455 82.9402 42.0354 82.8585 42.2653 82.7346C42.6694 82.5172 42.9563 82.1952 43.1433 81.748C43.2882 81.3998 43.3374 80.9454 43.283 80.4487Z" fill="#4A90CE"/>
<defs>
<radialGradient id="paint0_radial_1333_6629" cx="0" cy="0" r="1" gradientUnits="userSpaceOnUse" gradientTransform="translate(62.6889 44.4506) rotate(90) scale(3.68859 2.43185)">
<stop stop-color="#F89A85"/>
<stop offset="1" stop-color="#F89A85" stop-opacity="0"/>
</radialGradient>
<radialGradient id="paint1_radial_1333_6629" cx="0" cy="0" r="1" gradientUnits="userSpaceOnUse" gradientTransform="translate(30.9069 57.733) rotate(90) scale(8.15954 10.8494)">
<stop stop-color="#F89A85"/>
<stop offset="1" stop-color="#F89A85" stop-opacity="0"/>
</radialGradient>
</defs>
</svg>
