<svg width="40" height="40" viewBox="0 0 40 40" fill="none" xmlns="http://www.w3.org/2000/svg">
<path d="M38.5024 33.0094H34.9933V2.35483C34.9933 1.39725 34.2115 0.609375 33.2478 0.609375H7.58122C6.62364 0.609375 5.83576 1.39119 5.83576 2.35483V22.7851C2.87213 23.276 0.605469 25.8579 0.605469 28.9609C0.605469 32.0639 2.87819 34.6457 5.84182 35.1427V35.5245C5.84182 37.5791 7.51455 39.2518 9.56909 39.2518H35.3084C37.363 39.2518 39.0357 37.5791 39.0357 35.5245V33.5427C39.0297 33.2518 38.7933 33.0094 38.5024 33.0094ZM1.66607 28.9609C1.66607 26.0882 4.00546 23.7488 6.87819 23.7488C9.75091 23.7488 12.0903 26.0882 12.0903 28.9609C12.0903 31.8336 9.75091 34.173 6.87819 34.173C4.00546 34.173 1.66607 31.8397 1.66607 28.9609ZM9.56303 38.1912C8.09637 38.1912 6.89637 36.9973 6.89637 35.5245V35.2397C10.3509 35.2215 13.1509 32.4154 13.1509 28.9609C13.1509 25.5063 10.3509 22.7003 6.90243 22.6882V2.35483C6.90243 1.97907 7.20546 1.66998 7.58728 1.66998H33.2539C33.6297 1.66998 33.9388 1.97301 33.9388 2.35483V33.0094H12.757C12.4661 33.0094 12.2236 33.2457 12.2236 33.5427V35.5245C12.2297 36.9912 11.0358 38.1912 9.56303 38.1912ZM37.9691 35.5245C37.9691 36.9912 36.7751 38.1912 35.3024 38.1912H12.163C12.8539 37.5124 13.2903 36.573 13.2903 35.5245V34.076H37.9691V35.5245Z" fill="#063334"/>
<path d="M16.4731 10.1618H18.6731V12.3618C18.6731 12.8224 19.0488 13.1982 19.5094 13.1982H21.3276C21.7882 13.1982 22.164 12.8224 22.164 12.3618V10.1618H24.364C24.8246 10.1618 25.2003 9.78608 25.2003 9.32547V7.50729C25.2003 7.04669 24.8246 6.67093 24.364 6.67093H22.164V4.47699C22.164 4.01638 21.7882 3.64062 21.3276 3.64062H19.5094C19.0488 3.64062 18.6731 4.01638 18.6731 4.47699V6.67699H16.4731C16.0125 6.67699 15.6367 7.05275 15.6367 7.51335V9.33153C15.6367 9.78608 16.0125 10.1618 16.4731 10.1618ZM16.6973 7.73759H19.2003C19.4913 7.73759 19.7337 7.50123 19.7337 7.20426V4.70729H21.0973V7.20426C21.0973 7.49517 21.3337 7.73759 21.6306 7.73759H24.1337V9.10123H21.6306C21.3397 9.10123 21.0973 9.33759 21.0973 9.63456V12.1376H19.7337V9.6285C19.7337 9.33759 19.4973 9.09517 19.2003 9.09517H16.6973V7.73759Z" fill="#063334"/>
<path d="M10.3341 16.096H30.5038C30.7947 16.096 31.0371 15.8596 31.0371 15.5626C31.0371 15.2657 30.8008 15.0293 30.5038 15.0293H10.3341C10.0432 15.0293 9.80078 15.2657 9.80078 15.5626C9.80078 15.8596 10.0371 16.096 10.3341 16.096Z" fill="#063334"/>
<path d="M10.3341 18.8518H30.5038C30.7947 18.8518 31.0371 18.6155 31.0371 18.3185C31.0371 18.0215 30.8008 17.7852 30.5038 17.7852H10.3341C10.0432 17.7852 9.80078 18.0215 9.80078 18.3185C9.80078 18.6155 10.0371 18.8518 10.3341 18.8518Z" fill="#063334"/>
<path d="M31.0311 21.0763C31.0311 20.7854 30.7947 20.543 30.4977 20.543H10.3341C10.0432 20.543 9.80078 20.7793 9.80078 21.0763C9.80078 21.3733 10.0371 21.6096 10.3341 21.6096H30.5038C30.7947 21.6036 31.0311 21.3672 31.0311 21.0763Z" fill="#063334"/>
<path d="M30.502 23.2988H21.9747C21.6838 23.2988 21.4414 23.5352 21.4414 23.8322C21.4414 24.1291 21.6778 24.3655 21.9747 24.3655H30.502C30.7929 24.3655 31.0353 24.1291 31.0353 23.8322C31.0353 23.5352 30.7929 23.2988 30.502 23.2988Z" fill="#063334"/>
<path d="M30.502 26.0527H21.9747C21.6838 26.0527 21.4414 26.2891 21.4414 26.5861C21.4414 26.883 21.6778 27.1194 21.9747 27.1194H30.502C30.7929 27.1194 31.0353 26.883 31.0353 26.5861C31.0353 26.2891 30.7929 26.0527 30.502 26.0527Z" fill="#063334"/>
<path d="M30.502 28.8086H21.9747C21.6838 28.8086 21.4414 29.045 21.4414 29.3419C21.4414 29.6389 21.6778 29.8753 21.9747 29.8753H30.502C30.7929 29.8753 31.0353 29.6389 31.0353 29.3419C31.0353 29.045 30.7929 28.8086 30.502 28.8086Z" fill="#063334"/>
<path d="M9.58699 26.846C9.38093 26.6399 9.04154 26.6399 8.83548 26.846L5.72639 29.9611L4.90215 29.1308C4.69609 28.9247 4.3567 28.9247 4.15064 29.1308C3.94458 29.3369 3.94458 29.6763 4.15064 29.8823L5.35064 31.0823C5.44761 31.1793 5.587 31.2399 5.72639 31.2399C5.86579 31.2399 6.00518 31.1853 6.10215 31.0823L9.58699 27.5975C9.79911 27.3853 9.79911 27.052 9.58699 26.846Z" fill="#063334"/>
</svg>
