<svg width="82" height="147" viewBox="0 0 82 147" fill="none" xmlns="http://www.w3.org/2000/svg">
<path d="M10.5092 20.3201C3.93199 29.3435 2.03629 40.9944 1.15938 52.1945C-0.0458543 67.604 0.318772 83.2807 4.06977 98.2371C7.8216 113.193 15.1281 127.446 26.306 137.805C29.5753 140.834 33.2166 143.55 37.3734 145.07C49.5908 149.536 63.6874 142.333 71.0887 131.388C78.4909 120.443 80.5326 106.686 81.3015 93.424C81.7618 85.4855 81.8385 77.5256 81.5391 69.5822C80.9905 55.0063 79.0016 39.9639 71.4905 27.5886C59.175 7.29723 26.325 -1.3739 10.5092 20.3201Z" fill="#F686C8"/>
<path d="M12.2838 30.1732C10.9136 34.8474 12.113 41.0516 11.8837 45.8309C11.7369 48.8445 7.30117 50.9781 6.50428 56.7779C6.03159 60.2191 9.49302 69.7602 22.8455 71.4506C33.0145 72.7383 40.9257 73.0211 49.0984 71.3001C52.8098 70.5202 57.3181 68.0582 59.7203 65.234C61.2531 63.4353 62.1861 61.2843 63.1752 59.2912C65.0131 55.6077 64.3392 50.6225 66.1235 46.9217C68.8384 41.3047 66.0757 26.5137 58.8451 20.6304C48.191 11.9609 30.0233 12.6134 21.2014 17.4977C16.3153 20.2028 13.8759 24.1212 12.2838 30.1732Z" fill="#FAB595"/>
<mask id="mask0_1333_6762" style="mask-type:luminance" maskUnits="userSpaceOnUse" x="8" y="49" width="14" height="17">
<path d="M8.66992 62.5041C9.202 63.5378 10.1523 64.383 11.6661 64.8271C13.193 65.2803 15.0096 65.3134 16.4689 64.7089C19.2762 63.5378 20.4434 60.3745 20.8204 57.8886C20.8897 57.4304 20.9326 56.9954 20.9574 56.5984C21.0283 55.2223 21.826 52.1607 20.6984 50.9583C20.0128 50.2231 18.7053 49.9187 17.3557 49.9187C15.9995 49.9187 14.6021 50.228 13.7416 50.7085C11.5514 51.9308 10.0335 53.9677 9.10712 55.8492C8.10812 57.8968 7.59172 60.4151 8.66992 62.5041Z" fill="white"/>
</mask>
<g mask="url(#mask0_1333_6762)">
<mask id="mask1_1333_6762" style="mask-type:luminance" maskUnits="userSpaceOnUse" x="8" y="49" width="14" height="17">
<path d="M8.66992 62.5041C9.202 63.5378 10.1523 64.383 11.6661 64.8271C13.193 65.2803 15.0096 65.3134 16.4689 64.7089C19.2762 63.5378 20.4434 60.3745 20.8204 57.8886C20.8897 57.4304 20.9326 56.9954 20.9574 56.5984C21.0283 55.2223 21.826 52.1607 20.6984 50.9583C20.0128 50.2231 18.7053 49.9187 17.3557 49.9187C15.9995 49.9187 14.6021 50.228 13.7416 50.7085C11.5514 51.9308 10.0335 53.9677 9.10712 55.8492C8.10812 57.8968 7.59172 60.4151 8.66992 62.5041Z" fill="white"/>
</mask>
<g mask="url(#mask1_1333_6762)">
<path fill-rule="evenodd" clip-rule="evenodd" d="M15.4486 51.6445L15.7022 51.6596C16.022 51.6788 16.3344 51.6975 16.627 51.7099C16.3933 52.0949 16.1215 52.4778 15.8333 52.8598L15.8329 52.8598C16.121 52.4779 16.3928 52.095 16.6264 51.71C16.2799 51.6953 15.9056 51.6725 15.5241 51.6493L15.4484 51.6447C15.8466 51.0896 16.1676 50.5348 16.3372 49.9789C16.0021 50.0153 15.6734 50.0689 15.36 50.1376C15.0366 50.5918 14.6446 51.0785 14.2257 51.5868C14.6241 51.5976 15.0391 51.621 15.4472 51.6449L15.4469 51.6453C15.0388 51.6213 14.6238 51.5983 14.2253 51.5876C14.1064 51.7317 13.9854 51.8776 13.8631 52.025C13.5544 52.3972 13.2378 52.7788 12.9284 53.165L12.9278 53.165L12.9277 53.1652C12.5571 53.1206 12.2053 53.0842 11.8749 53.0607C11.4951 53.5702 11.1471 54.097 10.8373 54.6186L10.8499 54.6213L10.8743 54.6264L10.8369 54.6186C10.5278 55.14 10.2571 55.6567 10.0329 56.1458L10.0315 56.1453C10.4801 55.1667 11.1134 54.0787 11.8733 53.0598C11.7952 53.0539 11.7183 53.049 11.6426 53.0449C12.0391 53.0659 12.4689 53.1096 12.9279 53.1641C13.232 52.7842 13.5432 52.4091 13.8471 52.0428C14.4063 51.3687 14.9405 50.7248 15.3596 50.1364C14.7334 50.2737 14.1693 50.4712 13.7395 50.7114C12.6441 51.3222 11.7173 52.1374 10.9485 53.0345C11.1287 53.0288 11.3184 53.0308 11.5169 53.039C11.318 53.0309 11.1281 53.0294 10.9477 53.0352C10.1788 53.9323 9.56757 54.9118 9.10445 55.8522L9.10574 55.8525C8.60608 56.8758 8.22792 58.0174 8.10875 59.1639L8.10964 59.1645C7.99048 60.3105 8.13012 61.4622 8.66961 62.5062H8.66719C8.93299 63.0226 9.30374 63.492 9.79705 63.888C9.59784 63.091 9.57428 62.1561 9.67013 61.1775C9.63787 61.5103 9.61933 61.8381 9.61683 62.157L9.61757 62.1575C9.60942 62.7763 9.66802 63.3621 9.79885 63.8878C10.0452 64.0859 10.3226 64.2655 10.6324 64.4233L10.6326 64.4256C10.9429 64.5834 11.2856 64.7194 11.6639 64.8304L11.6639 64.8306C12.0453 64.9436 12.4454 65.0309 12.853 65.0882L12.853 65.088C13.2605 65.145 13.6763 65.1729 14.0899 65.1675L14.0904 65.167C14.9176 65.1563 15.7363 65.0135 16.4661 64.7115C17.8693 64.1258 18.8632 63.0428 19.5535 61.7952L19.554 61.7952C20.2435 60.5476 20.6295 59.1356 20.818 57.8928C20.2987 57.8209 19.6874 57.7476 19.0305 57.674L19.0305 57.6737C19.6869 57.7475 20.2975 57.8205 20.8164 57.8923C20.8857 57.4341 20.9286 56.9994 20.9525 56.6021C20.4673 56.5178 19.899 56.4377 19.2875 56.3609L19.2876 56.3603C19.8994 56.437 20.4679 56.5173 20.9533 56.6017C20.9696 56.2852 21.0245 55.8796 21.0855 55.4281V55.428C21.1572 54.8978 21.2374 54.3043 21.2739 53.7171C21.2742 53.7172 21.2745 53.7173 21.2747 53.7174C21.3415 52.6301 21.259 51.5642 20.6955 50.963C20.3523 50.5952 19.8544 50.3359 19.2728 50.1679C19.4726 50.9664 19.1496 52.0449 18.6995 53.1311C18.6993 53.1311 18.6991 53.131 18.6988 53.131L18.6985 53.1318C18.2073 53.0656 17.7045 53.0125 17.2169 52.9687C16.9611 53.4086 16.6847 53.8482 16.4132 54.2799C16.0525 54.8535 15.7005 55.4133 15.4172 55.9415L15.4172 55.9415L15.417 55.9418C14.7919 55.8781 14.2024 55.8177 13.6888 55.7598C13.4448 56.1667 13.2454 56.5752 13.1165 56.9861L13.1148 56.9858C12.9287 57.6205 12.7466 58.2955 12.5774 58.9843C13.0752 59.0683 13.6876 59.1548 14.357 59.2391C14.5451 58.5372 14.7299 57.8528 14.9015 57.2202L14.903 57.2204C14.7315 57.8529 14.5466 58.5372 14.3586 59.239C15.0276 59.3238 15.754 59.4066 16.4802 59.4833C16.6655 58.7707 16.8266 58.0768 16.9668 57.4489L16.9661 57.4489C17.0195 57.2133 17.0924 56.9671 17.1693 56.7269C17.0925 56.9668 17.0198 57.2128 16.9664 57.4481L17.2234 57.4757C17.8396 57.5418 18.4515 57.6075 19.0282 57.672L19.0281 57.6723C18.4517 57.6078 17.8402 57.5422 17.2242 57.4761L16.9672 57.4485C16.827 58.0764 16.6659 58.7703 16.4806 59.4829C17.2065 59.5598 17.9322 59.6307 18.5998 59.6916C18.4166 60.3969 18.1885 61.1172 17.8998 61.8009L17.898 61.8008C18.1861 61.1174 18.4149 60.3975 18.5977 59.6924C17.9304 59.6313 17.205 59.5604 16.4793 59.4838L16.4794 59.4834C15.7532 59.4065 15.0268 59.3238 14.3578 59.2391L14.3577 59.2394C13.6883 59.1551 13.076 59.0687 12.5782 58.9846C12.4095 59.6728 12.2537 60.3747 12.1208 61.0636L12.1202 61.0634L12.1201 61.0642C11.6633 60.9596 11.246 60.8338 10.8611 60.6927C10.7567 61.3722 10.6818 62.0411 10.6416 62.6717C11.0077 62.8247 11.3952 62.9577 11.7984 63.0667L11.7985 63.066C12.2014 63.1737 12.7101 63.2838 13.2711 63.3809L13.2711 63.3806C13.8326 63.4775 14.4461 63.5623 15.0579 63.6184C15.35 63.0144 15.6126 62.3372 15.8481 61.6332L15.8488 61.6333C15.4021 62.9684 14.8594 64.2069 14.2012 65.0331C14.5119 64.6429 14.7967 64.1607 15.0579 63.6201C14.4461 63.5639 13.8325 63.4792 13.271 63.3823L13.271 63.3825C12.7095 63.2853 12.2005 63.1751 11.7975 63.0673L11.7975 63.0672C11.3944 62.9582 11.007 62.8253 10.641 62.6724L10.6411 62.6703L10.6404 62.67C10.6808 62.0398 10.7555 61.3715 10.8598 60.6925L10.8599 60.6925L10.86 60.6919C11.2451 60.8331 11.6627 60.959 12.1198 61.0635C12.2527 60.3743 12.4087 59.672 12.5774 58.9835C12.0664 58.8834 11.634 58.7699 11.253 58.6479L11.2529 58.6485L11.2526 58.6484C11.4089 57.9743 11.5877 57.3159 11.7839 56.7007C11.4186 56.6078 11.1184 56.5165 10.8405 56.4249C10.6227 56.9982 10.4155 57.6197 10.2356 58.2625L10.2354 58.2624C10.4153 57.6199 10.6224 56.9987 10.8402 56.4256C10.659 56.366 10.4876 56.3062 10.314 56.2456C10.2212 56.2132 10.1278 56.1806 10.032 56.1478L10.0326 56.1466C10.1287 56.1796 10.2224 56.2123 10.3154 56.2447L10.3156 56.2448L10.3156 56.2448L10.3156 56.2448L10.3157 56.2448C10.4886 56.3052 10.6594 56.3648 10.8398 56.4242L10.8397 56.4244C11.1176 56.5161 11.4178 56.6074 11.7831 56.7002C11.9756 56.1265 12.3144 55.5582 12.7244 54.9941C12.3487 54.9256 12.0222 54.8624 11.7174 54.8007L11.7175 54.8007C11.5753 54.7722 11.4379 54.744 11.3022 54.7158C11.438 54.744 11.5756 54.7722 11.7178 54.8007L11.7179 54.8006C12.023 54.8625 12.3498 54.9257 12.726 54.9942C12.3161 55.5582 11.9773 56.1263 11.7848 56.7L11.7843 56.6999C11.5881 57.3152 11.4092 57.9736 11.253 58.6479C11.634 58.7698 12.0664 58.8834 12.5774 58.9834C12.7466 58.2947 12.9286 57.6198 13.1147 56.9852L13.1152 56.9853C13.244 56.5738 13.4436 56.1651 13.6878 55.7579C14.2014 55.8157 14.7909 55.8763 15.416 55.9399C15.6993 55.4117 16.0513 54.8519 16.412 54.2783L16.412 54.2783C16.6835 53.8466 16.9598 53.4071 17.2156 52.9673L17.2169 52.9674L17.217 52.9673C17.7042 53.0109 18.2067 53.0642 18.6976 53.1303C19.1479 52.0438 19.471 50.965 19.2712 50.1663C18.9812 50.0823 18.6694 50.0211 18.3464 49.9814L18.3463 49.9814C18.024 49.9419 17.6898 49.9231 17.3535 49.9231L15.4486 51.6445ZM17.353 49.9231C17.0141 49.9231 16.6725 49.9424 16.3376 49.9788C16.168 50.5348 15.8469 51.0894 15.4486 51.6445L17.353 49.9231ZM14.0335 55.2197C14.377 54.7183 14.7707 54.2185 15.1649 53.7183C15.2303 53.6352 15.2958 53.552 15.3611 53.4689L15.361 53.4689C15.2962 53.5514 15.2312 53.634 15.1661 53.7165L15.166 53.7167L15.1654 53.7174C14.7711 54.2178 14.3773 54.7176 14.0336 55.2194C13.5287 55.1367 13.1025 55.0625 12.7262 54.9939L12.7261 54.9941C13.1024 55.0631 13.5286 55.137 14.0335 55.2197ZM8.89149 59.7052C8.99849 59.0827 9.16367 58.4591 9.36196 57.8585L9.36272 57.8589C9.16449 58.4593 8.9991 59.0831 8.89207 59.7056L8.89149 59.7052Z" fill="url(#paint0_radial_1333_6762)"/>
</g>
</g>
<path d="M65.6852 44.5616C72.6428 42.0624 71.1406 50.3168 70.2917 53.5933C69.5889 56.315 67.5463 61.0405 63.1617 60.8941C58.439 60.732 57.8417 55.5492 58.3573 52.7234C59.0214 49.0705 61.45 46.0626 65.6852 44.5616Z" fill="#FAB595"/>
<mask id="mask2_1333_6762" style="mask-type:luminance" maskUnits="userSpaceOnUse" x="41" y="50" width="21" height="18">
<path d="M59.0283 52.7931C56.8785 51.1283 54.0349 50.6999 51.2516 51.1399C48.9945 51.4997 46.7721 52.43 44.9936 53.7425C43.0046 55.2079 41.5123 57.2002 41.2525 59.2991C41.0058 61.2963 42.1467 63.344 44.0399 64.8219C45.642 66.0723 47.7769 66.9183 50.0645 66.9977C50.8935 67.0242 51.7358 66.9506 52.583 66.762C54.3558 66.3626 56.1583 65.4057 57.6902 64.152C59.6239 62.5617 61.1211 60.5008 61.5517 58.5069C61.805 57.3631 61.7027 56.2401 61.1368 55.2435C60.5585 54.237 59.84 53.4249 59.0283 52.7931Z" fill="white"/>
</mask>
<g mask="url(#mask2_1333_6762)">
<mask id="mask3_1333_6762" style="mask-type:luminance" maskUnits="userSpaceOnUse" x="41" y="50" width="21" height="18">
<path d="M59.0283 52.7931C56.8785 51.1283 54.0349 50.6999 51.2516 51.1399C48.9945 51.4997 46.7721 52.43 44.9936 53.7425C43.0046 55.2079 41.5123 57.2002 41.2525 59.2991C41.0058 61.2963 42.1467 63.344 44.0399 64.8219C45.642 66.0723 47.7769 66.9183 50.0645 66.9977C50.8935 67.0242 51.7358 66.9506 52.583 66.762C54.3558 66.3626 56.1583 65.4057 57.6902 64.152C59.6239 62.5617 61.1211 60.5008 61.5517 58.5069C61.805 57.3631 61.7027 56.2401 61.1368 55.2435C60.5585 54.237 59.84 53.4249 59.0283 52.7931Z" fill="white"/>
</mask>
<g mask="url(#mask3_1333_6762)">
<path fill-rule="evenodd" clip-rule="evenodd" d="M55.3768 51.1822C54.0493 50.9218 52.6416 50.9243 51.2505 51.1447C51.2381 51.7979 51.1928 52.4504 51.1257 53.1024L51.1257 53.1024L51.1205 53.1526L51.1201 53.1527C51.1893 52.4843 51.2368 51.8153 51.2497 51.1452C50.685 51.2353 50.1242 51.3608 49.5708 51.5191L49.5708 51.5195C49.0174 51.6778 48.4719 51.8684 47.9419 52.0893C47.4329 53.1251 46.9045 54.3248 46.4688 55.5624L46.4686 55.5624C46.9044 54.3247 47.4328 53.1249 47.9419 52.0889C46.8818 52.5303 45.8819 53.0912 44.9926 53.7478C43.9977 54.4803 43.1275 55.345 42.4734 56.2886C43.0256 56.1195 43.6545 55.9799 44.3298 55.8617L44.3295 55.8623C43.6549 55.9806 43.0268 56.1197 42.4751 56.2886C41.8212 57.2314 41.3838 58.2536 41.2531 59.3026L41.2525 59.3026C41.1292 60.3012 41.3524 61.312 41.8438 62.2581C42.3734 62.4094 42.9811 62.5499 43.6362 62.675L43.6366 62.6762C42.9806 62.5507 42.3731 62.4101 41.8427 62.2589C42.3333 63.2053 43.0923 64.087 44.0387 64.8259C44.8394 65.4506 45.7741 65.9744 46.7939 66.3524C46.3275 65.4484 45.9496 64.2573 45.7217 63.0023C45.7216 63.0023 45.7216 63.0023 45.7215 63.0023C45.608 62.3747 45.5315 61.7315 45.5009 61.1003C44.7468 61.054 44.0108 60.9998 43.3088 60.9469L43.3087 60.9457C44.0112 60.9987 44.7468 61.0527 45.5015 61.0992L45.5015 61.0991C46.2558 61.1454 47.0287 61.1823 47.8055 61.202L47.8055 61.2024C47.0288 61.1826 46.2559 61.1457 45.5017 61.0995C45.5322 61.7307 45.6088 62.3739 45.7223 63.0015L45.7217 63.0014C45.9496 64.2564 46.3275 65.4474 46.7939 66.3514C47.3038 66.54 47.8356 66.6922 48.3818 66.8025C48.3486 66.5546 48.312 66.2926 48.2737 66.019L48.2737 66.019L48.2737 66.0189L48.2737 66.0188L48.2737 66.0187C48.2147 65.5973 48.1519 65.1483 48.0921 64.6809C48.1111 64.8291 48.1304 64.9753 48.1497 65.1194C48.8103 65.1922 49.4605 65.2341 50.0687 65.245L50.0687 65.061C50.0686 64.4884 50.0685 63.8876 50.0759 63.2736L50.0768 63.2736L50.0768 63.2697L50.0776 63.2697C50.0695 63.9361 50.0695 64.5872 50.0695 65.2034V65.2452L50.0687 65.2451V65.2458C49.4607 65.235 48.8108 65.1929 48.1505 65.1202C48.1902 65.415 48.2302 65.7008 48.2685 65.9751L48.2686 65.9753L48.2686 65.9754L48.2686 65.9755C48.3091 66.2653 48.3478 66.5423 48.3826 66.8037C48.9295 66.9135 49.4911 66.9813 50.0631 67.0011L50.0631 67.0006C50.8909 67.0276 51.7326 66.9531 52.579 66.7651C52.7126 66.218 52.8334 65.6217 52.9429 64.9932L52.9471 64.9923C53.0507 64.398 53.1449 63.7751 53.2311 63.1377C53.0538 64.4489 52.8438 65.7 52.583 66.7654C53.4691 66.566 54.3626 66.2271 55.227 65.7809L55.2271 65.7808C56.0906 65.335 56.9245 64.7822 57.6897 64.1555C58.6563 63.3605 59.5137 62.4477 60.1831 61.4847C59.1472 61.7956 57.9619 62.1061 56.7601 62.3763L56.76 62.3764C55.559 62.6469 54.3423 62.8768 53.246 63.027L53.9868 58.9092L54.4618 58.8723C55.5163 58.7902 56.5716 58.7081 57.6268 58.6427L57.6269 58.6423C57.9959 58.6197 58.365 58.5987 58.7339 58.5805L58.734 58.58C57.796 58.6255 56.8562 58.689 55.9182 58.7593C56.0188 58.1323 56.1172 57.4158 56.1671 56.7085L56.1664 56.7085L56.1663 56.7089C55.5667 56.7341 54.965 56.7683 54.3648 56.8081L55.0774 52.8466C55.3282 52.8526 55.5777 52.8637 55.8255 52.8803V52.8778C55.8972 53.2642 55.959 53.6596 56.019 54.043L56.019 54.0432L56.019 54.0433L56.0191 54.0435L56.0191 54.0437L56.0191 54.044L56.0191 54.0441L56.0192 54.0442L56.0192 54.0443C56.0549 54.2726 56.0899 54.4967 56.126 54.712L56.1261 54.712L56.126 54.7117L56.1267 54.7117C56.0902 54.4934 56.0547 54.2661 56.0185 54.0345C55.8833 53.1674 55.7385 52.2396 55.4914 51.4952C55.6298 51.9127 55.7363 52.3878 55.8264 52.8778C55.5782 52.8619 55.3285 52.8513 55.0776 52.8457L55.3768 51.1822ZM55.0776 52.8457C54.7359 52.8381 54.3919 52.8396 54.0465 52.8494C54.3918 52.8397 54.7358 52.8385 55.0774 52.8466L55.0776 52.8457ZM54.3646 56.8087C54.0223 56.8314 53.6803 56.8558 53.3395 56.8813L53.3395 56.8809C53.6804 56.8552 54.0223 56.8307 54.3648 56.8081L54.3646 56.8087ZM53.9869 58.9087L54.3646 56.8087C54.9647 56.7691 55.5661 56.7348 56.1655 56.7093C56.116 57.4167 56.0172 58.1332 55.9166 58.7603C55.4287 58.7964 54.9407 58.8344 54.4529 58.8724L54.4527 58.8724L53.9869 58.9087ZM50.288 59.1561L50.2884 59.1561V59.1552L50.2896 59.1552L50.2894 59.1564C51.2255 59.1103 52.1626 59.0466 53.101 58.9763L53.101 58.9763C53.3961 58.9543 53.6914 58.9316 53.9869 58.9087L53.9868 58.9092L53.7036 58.9311L53.7036 58.9312C52.564 59.0188 51.4258 59.1011 50.2894 59.1568C50.2161 59.8184 50.1679 60.5059 50.1348 61.1981L50.1339 61.1981L50.1339 61.1989C49.3641 61.2253 48.5845 61.2234 47.8074 61.2069L47.8074 61.203C48.5841 61.2228 49.3642 61.2247 50.1337 61.1949C50.1666 60.5036 50.2152 59.8169 50.288 59.1561ZM50.288 59.1561C49.4814 59.1908 48.6801 59.2146 47.8887 59.232C47.9613 58.5884 48.0805 57.9401 48.2247 57.2909C47.4428 57.3363 46.6629 57.3833 45.9003 57.4322L45.9003 57.432C46.6624 57.3833 47.4417 57.3364 48.223 57.2908L48.2231 57.2908L48.2254 57.2906C48.0813 57.9398 47.962 58.588 47.8895 59.2314C48.6807 59.2141 49.4817 59.1899 50.2881 59.1552L50.288 59.1561ZM43.9171 59.2794L43.3267 59.2832L43.3268 59.2824C43.7137 59.2779 44.1084 59.2756 44.5094 59.2733H44.5096C44.8529 59.2713 45.2009 59.2693 45.5526 59.2658L45.5525 59.2662L45.5517 59.2662L45.5517 59.2667C44.9964 59.2727 44.4503 59.2761 43.9171 59.2794ZM45.8982 57.4315C46.0561 56.8092 46.2501 56.1817 46.4675 55.563L46.4673 55.5631C46.2499 56.1817 46.056 56.8092 45.8982 57.4315L45.8982 57.4315ZM50.5575 57.1575L50.5561 57.1576C50.5997 56.8667 50.6446 56.5758 50.6895 56.2847L50.6895 56.2841C50.7474 55.9088 50.8053 55.5332 50.8606 55.1574C50.4581 55.1938 50.0409 55.2294 49.6148 55.2657L49.6145 55.2657L49.6131 55.2659C49.3143 55.2913 49.0112 55.3171 48.7059 55.3439L48.7662 55.1146C48.9166 54.544 49.0663 53.9758 49.2 53.4125L49.2001 53.4125C49.07 53.9615 48.9243 54.5154 48.778 55.0713L48.7064 55.3437C49.026 55.3155 49.3431 55.2885 49.6554 55.262L49.6556 55.2619L49.6557 55.2619C50.0681 55.2269 50.4721 55.1925 50.8621 55.1571C50.8049 55.5456 50.7451 55.9338 50.6853 56.3218L50.6853 56.322C50.6449 56.5842 50.6045 56.8463 50.5649 57.1084L50.5575 57.1575ZM50.8768 55.0574C51.7548 54.95 52.6363 54.8619 53.5126 54.8014L53.5127 54.8011L53.5118 54.8012L53.5119 54.8009C52.6358 54.8612 51.7546 54.9494 50.8769 55.0568L50.8768 55.0574Z" fill="url(#paint1_radial_1333_6762)"/>
</g>
</g>
<path d="M49.7898 48.4775C49.7898 49.9388 48.4369 51.1248 46.7672 51.1248C45.0975 51.1248 43.7446 49.9388 43.7446 48.4775C43.7446 47.0162 45.0975 45.8311 46.7672 45.8311C48.4369 45.8311 49.7898 47.0162 49.7898 48.4775Z" fill="#422D1E"/>
<path d="M49.7762 42.3721C49.6855 42.3721 49.5922 42.3439 49.5131 42.2861C47.8995 41.1192 45.3504 41.4367 45.3257 41.44C45.0765 41.4706 44.8513 41.2978 44.8192 41.0505C44.787 40.8032 44.9602 40.5758 45.2069 40.5436C45.3265 40.527 48.1321 40.1714 50.0402 41.5525C50.2423 41.6989 50.2885 41.9817 50.1425 42.1843C50.0542 42.3067 49.9164 42.3721 49.7762 42.3721Z" fill="#422D1E"/>
<path d="M48.9294 47.3839C48.9294 47.7717 48.6143 48.0876 48.2258 48.0876C47.8364 48.0876 47.5221 47.7717 47.5221 47.3839C47.5221 46.9935 47.8364 46.6776 48.2258 46.6776C48.6143 46.6776 48.9294 46.9935 48.9294 47.3839Z" fill="#FDF6ED"/>
<path d="M20.6036 48.4775C20.6036 49.9388 21.9557 51.1248 23.6262 51.1248C25.2951 51.1248 26.6488 49.9388 26.6488 48.4775C26.6488 47.0162 25.2951 45.8311 23.6262 45.8311C21.9557 45.8311 20.6036 47.0162 20.6036 48.4775Z" fill="#422D1E"/>
<path d="M20.6148 42.3721C20.4754 42.3721 20.3377 42.3067 20.2494 42.1843C20.1034 41.9817 20.1488 41.6989 20.3509 41.5525C22.259 40.1722 25.0679 40.5262 25.1858 40.5436C25.4325 40.5758 25.6057 40.8032 25.5736 41.0505C25.5414 41.2978 25.3145 41.4715 25.0679 41.44C25.0423 41.4367 22.4932 41.1192 20.8788 42.2861C20.7988 42.3439 20.7072 42.3721 20.6148 42.3721Z" fill="#422D1E"/>
<path d="M24.1371 47.3839C24.1371 47.7717 24.4522 48.0876 24.8408 48.0876C25.2293 48.0876 25.5444 47.7717 25.5444 47.3839C25.5444 46.9935 25.2293 46.6776 24.8408 46.6776C24.4522 46.6776 24.1371 46.9935 24.1371 47.3839Z" fill="#FDF6ED"/>
<path d="M34.2202 58.9905C31.9235 58.9905 30.1978 57.3274 30.1243 57.2554C29.8571 56.9941 29.8521 56.5641 30.1128 56.2961C30.3743 56.029 30.8016 56.0224 31.0681 56.2837C31.1943 56.4053 34.1814 59.227 37.0192 56.2978C37.2807 56.029 37.7097 56.0224 37.9761 56.2837C38.2451 56.5442 38.2508 56.9743 37.991 57.243C36.8847 58.3843 35.6366 58.9723 34.2837 58.9905C34.2614 58.9905 34.2408 58.9905 34.2202 58.9905Z" fill="#F14C5F"/>
<path d="M46.575 19.7439C47.442 19.0038 48.2472 18.1817 48.8609 17.229C49.9152 15.594 50.3639 13.6332 50.3755 11.7021C50.3854 9.7719 49.9795 7.86152 49.4293 6.01068C49.1719 5.1415 48.8716 4.26404 48.3148 3.5429C47.8264 2.91107 47.1615 2.43058 46.462 2.03361C42.984 0.0620365 38.352 0.14061 35.0077 2.35202C34.342 2.79116 33.7134 3.32457 33.343 4.02174C32.8686 4.9149 32.8686 5.97265 32.9833 6.97085C33.0542 7.59027 33.1771 8.23202 33.5673 8.72243C33.9559 9.21285 34.6876 9.49321 35.2511 9.20127C34.4715 8.88618 34.1918 7.80694 34.6447 7.10729C35.0976 6.40599 36.1123 6.16286 36.8869 6.48787C37.6623 6.81123 38.1672 7.61425 38.2357 8.43878C38.2596 8.73815 38.2299 9.05323 38.074 9.31208C37.8356 9.70987 37.3588 9.89925 36.91 10.0382C34.9087 10.6601 32.5477 10.9835 31.3763 12.6937C30.7073 13.6729 30.5934 14.9465 30.8714 16.0886C31.1494 17.2315 31.7847 18.2611 32.5131 19.1915C36.0546 23.7152 42.4495 23.267 46.575 19.7439Z" fill="#866447"/>
<path d="M39.0773 3.4078C39.2481 3.3896 39.4205 3.37637 39.5946 3.36562C40.3213 3.32344 41.3962 3.32591 42.3243 3.83287C42.9851 4.19427 43.5468 4.78642 44.0435 5.64485C44.5582 6.53636 44.8453 7.42622 44.8956 8.29126C44.993 9.94362 44.2241 11.6654 42.7871 13.0168C41.5356 14.1936 39.9476 14.9635 38.4174 15.6193C37.0282 16.2148 35.4055 16.8259 33.7664 16.5241C33.5346 16.4819 33.3819 16.2586 33.4248 16.027C33.4669 15.7947 33.6896 15.6417 33.9198 15.6838C35.3255 15.9435 36.8054 15.3803 38.0825 14.8329C39.7678 14.1109 41.1133 13.4195 42.2038 12.394C43.438 11.2337 44.1259 9.71866 44.0459 8.3417C44.0022 7.61145 43.7539 6.84813 43.306 6.07323C42.8894 5.35456 42.4365 4.86746 41.9159 4.58297C41.3558 4.27697 40.634 4.1612 39.6441 4.21909C38.1105 4.3051 36.7353 4.72025 35.6513 5.41163C35.4921 5.51335 35.3131 5.6374 35.1886 5.78709C34.6565 6.42719 34.4263 6.73565 34.527 7.32531C34.5665 7.55769 34.4106 7.77852 34.178 7.81822C33.952 7.8604 33.7259 7.70077 33.6863 7.4692C33.5156 6.46688 33.9866 5.89873 34.5327 5.24126C34.7324 5.0006 34.979 4.82776 35.1927 4.69048C36.275 4.00076 37.6089 3.56079 39.0773 3.4078Z" fill="#6A4B37"/>
<path d="M40.8025 1.64197C44.5939 1.24583 46.0681 3.16035 46.6026 3.85337C46.6521 3.91871 46.6925 3.96999 46.7231 4.00472C47.2386 4.56295 47.9209 5.7497 48.1271 6.44521C48.8819 8.99156 48.9413 11.0996 48.3111 12.8901C47.9629 13.8758 47.3624 14.855 46.5251 15.7986C43.8869 18.7725 39.7969 20.3381 35.8528 19.8882C35.6185 19.8609 35.4511 19.6492 35.4775 19.4151C35.5039 19.1811 35.7126 19.0115 35.9485 19.0388C39.6253 19.4598 43.4307 18.0001 45.8882 15.2313C46.6521 14.3704 47.1957 13.4863 47.5076 12.6047C48.076 10.9913 48.0116 9.05606 47.3104 6.68918C47.1397 6.11275 46.5267 5.05088 46.0969 4.58445C46.0524 4.53649 45.9971 4.46536 45.9286 4.37605C45.3363 3.60859 43.7599 1.57168 39.0074 2.85271C38.0934 3.09916 36.1828 4.44385 35.8042 5.2353C35.7019 5.44949 35.4486 5.53717 35.2349 5.43627C35.0229 5.33372 34.9338 5.079 35.0353 4.86646C35.569 3.74917 37.751 2.30606 38.7863 2.02736C39.5222 1.82971 40.192 1.70565 40.8025 1.64197Z" fill="#6A4B37"/>
<path d="M69.2266 49.7149C69.545 51.655 69.0641 53.7151 67.9191 55.3121C67.651 55.685 67.3441 56.039 66.963 56.2954C66.0852 56.8867 64.9526 56.8908 63.895 56.8735C63.7968 56.8718 63.6855 56.8644 63.622 56.7891C63.5766 56.7345 63.5683 56.6584 63.5642 56.5873C63.5296 55.9158 63.7243 55.255 63.9181 54.6108C64.522 52.592 64.8495 49.5776 65.9978 47.8161C67.1791 46.0066 69.2266 48.1552 69.2266 49.7149Z" fill="#F6895A"/>
<path d="M30.1127 17.1469C29.7745 17.1304 29.423 17.1304 29.1153 17.2726C28.8167 17.4107 28.5907 17.6688 28.3902 17.9293C27.0653 19.6511 26.3955 21.8666 26.5456 24.0351C26.5613 24.2707 26.5902 24.5155 26.7115 24.719C26.8534 24.958 27.1033 25.1077 27.3425 25.2483C28.1675 25.7321 29.0559 26.2324 30.0104 26.1786C30.7429 26.1381 31.4144 25.7726 32.0323 25.3781C33.5527 24.4064 36.8087 22.2868 36.3888 20.101C35.9648 17.902 31.8962 17.2379 30.1127 17.1469Z" fill="#F686C8"/>
<path d="M43.5012 17.1469C43.8386 17.1304 44.1908 17.1304 44.4977 17.2726C44.7963 17.4107 45.0216 17.6688 45.2237 17.9293C46.5477 19.6511 47.2176 21.8666 47.0674 24.0351C47.0509 24.2707 47.0229 24.5155 46.9024 24.719C46.7597 24.958 46.5106 25.1077 46.2713 25.2483C45.4456 25.7321 44.5571 26.2324 43.6027 26.1786C42.871 26.1381 42.1986 25.7726 41.5807 25.3781C40.0604 24.4064 36.8043 22.2868 37.2251 20.101C37.6483 17.902 41.7169 17.2379 43.5012 17.1469Z" fill="#F686C8"/>
<path d="M34.9523 17.5977C34.9671 19.5065 34.9811 21.4152 34.9952 23.3231C35.9447 23.5174 37.1969 23.6249 37.6886 22.979C37.8775 22.7309 37.8899 22.4308 37.8973 22.1446C37.9155 21.445 37.9336 20.7453 37.9518 20.0465C37.9666 19.4825 37.9715 18.8887 37.6111 18.3958C37.2506 17.9029 36.3885 17.5721 35.7393 17.8483" fill="#D16FA9"/>
<defs>
<radialGradient id="paint0_radial_1333_6762" cx="0" cy="0" r="1" gradientUnits="userSpaceOnUse" gradientTransform="translate(14.6822 57.5456) rotate(90) scale(7.62253 6.61216)">
<stop stop-color="#F89A85"/>
<stop offset="1" stop-color="#F89A85" stop-opacity="0"/>
</radialGradient>
<radialGradient id="paint1_radial_1333_6762" cx="0" cy="0" r="1" gradientUnits="userSpaceOnUse" gradientTransform="translate(50.7011 58.9944) rotate(90) scale(8.01153 9.48198)">
<stop stop-color="#F89A85"/>
<stop offset="1" stop-color="#F89A85" stop-opacity="0"/>
</radialGradient>
</defs>
</svg>
