<svg width="27" height="27" viewBox="0 0 27 27" fill="none" xmlns="http://www.w3.org/2000/svg">
<path d="M8.74303 13.1058C8.74303 10.6931 10.6995 8.7368 13.1136 8.7368C15.5277 8.7368 17.4852 10.6931 17.4852 13.1058C17.4852 15.5184 15.5277 17.4748 13.1136 17.4748C10.6995 17.4748 8.74303 15.5184 8.74303 13.1058ZM6.37982 13.1058C6.37982 16.8226 9.39452 19.8355 13.1136 19.8355C16.8326 19.8355 19.8473 16.8226 19.8473 13.1058C19.8473 9.38895 16.8326 6.37606 13.1136 6.37606C9.39452 6.37606 6.37982 9.38895 6.37982 13.1058ZM18.5403 6.10922C18.5401 6.42027 18.6323 6.72438 18.8051 6.98308C18.9779 7.24178 19.2236 7.44345 19.5111 7.5626C19.7986 7.68175 20.115 7.71302 20.4203 7.65246C20.7256 7.5919 21.006 7.44223 21.2262 7.22237C21.4464 7.00251 21.5964 6.72234 21.6572 6.41729C21.7181 6.11224 21.687 5.796 21.568 5.50858C21.449 5.22116 21.2474 4.97545 20.9887 4.80254C20.73 4.62962 20.4258 4.53727 20.1145 4.53714H20.1139C19.6967 4.53734 19.2967 4.70301 19.0016 4.99777C18.7066 5.29253 18.5406 5.69228 18.5403 6.10922ZM7.81562 23.7737C6.53708 23.7155 5.84216 23.5026 5.38034 23.3228C4.76809 23.0846 4.33124 22.8009 3.87194 22.3425C3.41265 21.8841 3.12834 21.4479 2.89103 20.8361C2.71101 20.3747 2.49804 19.68 2.43992 18.4022C2.37635 17.0208 2.36365 16.6058 2.36365 13.1059C2.36365 9.60598 2.37739 9.19215 2.43992 7.80953C2.49815 6.53175 2.71269 5.8384 2.89103 5.37571C3.12939 4.76382 3.41328 4.32724 3.87194 3.86822C4.33061 3.40919 4.76704 3.12506 5.38034 2.88789C5.84195 2.70798 6.53708 2.49514 7.81562 2.43705C9.19792 2.37351 9.61315 2.36083 13.1136 2.36083C16.614 2.36083 17.0297 2.37456 18.4131 2.43705C19.6917 2.49524 20.3854 2.70965 20.8484 2.88789C21.4606 3.12506 21.8975 3.40982 22.3568 3.86822C22.8161 4.32661 23.0993 4.76382 23.3377 5.37571C23.5177 5.83704 23.7307 6.53175 23.7888 7.80953C23.8524 9.19215 23.8651 9.60598 23.8651 13.1059C23.8651 16.6058 23.8524 17.0196 23.7888 18.4022C23.7306 19.68 23.5166 20.3745 23.3377 20.8361C23.0993 21.4479 22.8155 21.8845 22.3568 22.3425C21.8981 22.8005 21.4606 23.0846 20.8484 23.3228C20.3868 23.5027 19.6917 23.7156 18.4131 23.7737C17.0308 23.8372 16.6156 23.8499 13.1136 23.8499C9.61158 23.8499 9.1975 23.8372 7.81562 23.7737ZM7.70704 0.0792473C6.311 0.142785 5.35705 0.364012 4.52396 0.68799C3.66118 1.02256 2.9308 1.47141 2.20094 2.19968C1.47108 2.92795 1.02311 3.65905 0.688342 4.52131C0.36417 5.35442 0.142809 6.30728 0.0792339 7.70248C0.0146092 9.09988 -0.000183105 9.54664 -0.000183105 13.1058C-0.000183105 16.6649 0.0146092 17.1117 0.0792339 18.5091C0.142809 19.9044 0.36417 20.8571 0.688342 21.6903C1.02311 22.552 1.47118 23.2839 2.20094 24.0119C2.93069 24.7398 3.66118 25.1881 4.52396 25.5236C5.35863 25.8475 6.311 26.0688 7.70704 26.1323C9.10602 26.1958 9.5523 26.2117 13.1136 26.2117C16.6749 26.2117 17.1219 26.1969 18.5201 26.1323C19.9163 26.0688 20.8696 25.8475 21.7032 25.5236C22.5655 25.1881 23.2964 24.7402 24.0262 24.0119C24.7561 23.2836 25.2031 22.552 25.5388 21.6903C25.863 20.8571 26.0854 19.9043 26.1479 18.5091C26.2115 17.1106 26.2263 16.6649 26.2263 13.1058C26.2263 9.54664 26.2115 9.09988 26.1479 7.70248C26.0844 6.30717 25.863 5.3539 25.5388 4.52131C25.2031 3.65957 24.7549 2.9291 24.0262 2.19968C23.2975 1.47026 22.5655 1.02256 21.7043 0.68799C20.8696 0.364012 19.9162 0.141736 18.5212 0.0792473C17.1229 0.0157099 16.6759 -0.00012207 13.1146 -0.00012207C9.55335 -0.00012207 9.10602 0.0146614 7.70704 0.0792473Z" fill="url(#paint0_radial_1583_4501)"/>
<path d="M8.74303 13.1058C8.74303 10.6931 10.6995 8.7368 13.1136 8.7368C15.5277 8.7368 17.4852 10.6931 17.4852 13.1058C17.4852 15.5184 15.5277 17.4748 13.1136 17.4748C10.6995 17.4748 8.74303 15.5184 8.74303 13.1058ZM6.37982 13.1058C6.37982 16.8226 9.39452 19.8355 13.1136 19.8355C16.8326 19.8355 19.8473 16.8226 19.8473 13.1058C19.8473 9.38895 16.8326 6.37606 13.1136 6.37606C9.39452 6.37606 6.37982 9.38895 6.37982 13.1058ZM18.5403 6.10922C18.5401 6.42027 18.6323 6.72438 18.8051 6.98308C18.9779 7.24178 19.2236 7.44345 19.5111 7.5626C19.7986 7.68175 20.115 7.71302 20.4203 7.65246C20.7256 7.5919 21.006 7.44223 21.2262 7.22237C21.4464 7.00251 21.5964 6.72234 21.6572 6.41729C21.7181 6.11224 21.687 5.796 21.568 5.50858C21.449 5.22116 21.2474 4.97545 20.9887 4.80254C20.73 4.62962 20.4258 4.53727 20.1145 4.53714H20.1139C19.6967 4.53734 19.2967 4.70301 19.0016 4.99777C18.7066 5.29253 18.5406 5.69228 18.5403 6.10922ZM7.81562 23.7737C6.53708 23.7155 5.84216 23.5026 5.38034 23.3228C4.76809 23.0846 4.33124 22.8009 3.87194 22.3425C3.41265 21.8841 3.12834 21.4479 2.89103 20.8361C2.71101 20.3747 2.49804 19.68 2.43992 18.4022C2.37635 17.0208 2.36365 16.6058 2.36365 13.1059C2.36365 9.60598 2.37739 9.19215 2.43992 7.80953C2.49815 6.53175 2.71269 5.8384 2.89103 5.37571C3.12939 4.76382 3.41328 4.32724 3.87194 3.86822C4.33061 3.40919 4.76704 3.12506 5.38034 2.88789C5.84195 2.70798 6.53708 2.49514 7.81562 2.43705C9.19792 2.37351 9.61315 2.36083 13.1136 2.36083C16.614 2.36083 17.0297 2.37456 18.4131 2.43705C19.6917 2.49524 20.3854 2.70965 20.8484 2.88789C21.4606 3.12506 21.8975 3.40982 22.3568 3.86822C22.8161 4.32661 23.0993 4.76382 23.3377 5.37571C23.5177 5.83704 23.7307 6.53175 23.7888 7.80953C23.8524 9.19215 23.8651 9.60598 23.8651 13.1059C23.8651 16.6058 23.8524 17.0196 23.7888 18.4022C23.7306 19.68 23.5166 20.3745 23.3377 20.8361C23.0993 21.4479 22.8155 21.8845 22.3568 22.3425C21.8981 22.8005 21.4606 23.0846 20.8484 23.3228C20.3868 23.5027 19.6917 23.7156 18.4131 23.7737C17.0308 23.8372 16.6156 23.8499 13.1136 23.8499C9.61158 23.8499 9.1975 23.8372 7.81562 23.7737ZM7.70704 0.0792473C6.311 0.142785 5.35705 0.364012 4.52396 0.68799C3.66118 1.02256 2.9308 1.47141 2.20094 2.19968C1.47108 2.92795 1.02311 3.65905 0.688342 4.52131C0.36417 5.35442 0.142809 6.30728 0.0792339 7.70248C0.0146092 9.09988 -0.000183105 9.54664 -0.000183105 13.1058C-0.000183105 16.6649 0.0146092 17.1117 0.0792339 18.5091C0.142809 19.9044 0.36417 20.8571 0.688342 21.6903C1.02311 22.552 1.47118 23.2839 2.20094 24.0119C2.93069 24.7398 3.66118 25.1881 4.52396 25.5236C5.35863 25.8475 6.311 26.0688 7.70704 26.1323C9.10602 26.1958 9.5523 26.2117 13.1136 26.2117C16.6749 26.2117 17.1219 26.1969 18.5201 26.1323C19.9163 26.0688 20.8696 25.8475 21.7032 25.5236C22.5655 25.1881 23.2964 24.7402 24.0262 24.0119C24.7561 23.2836 25.2031 22.552 25.5388 21.6903C25.863 20.8571 26.0854 19.9043 26.1479 18.5091C26.2115 17.1106 26.2263 16.6649 26.2263 13.1058C26.2263 9.54664 26.2115 9.09988 26.1479 7.70248C26.0844 6.30717 25.863 5.3539 25.5388 4.52131C25.2031 3.65957 24.7549 2.9291 24.0262 2.19968C23.2975 1.47026 22.5655 1.02256 21.7043 0.68799C20.8696 0.364012 19.9162 0.141736 18.5212 0.0792473C17.1229 0.0157099 16.6759 -0.00012207 13.1146 -0.00012207C9.55335 -0.00012207 9.10602 0.0146614 7.70704 0.0792473Z" fill="url(#paint1_radial_1583_4501)"/>
<defs>
<radialGradient id="paint0_radial_1583_4501" cx="0" cy="0" r="1" gradientUnits="userSpaceOnUse" gradientTransform="translate(3.4843 26.3355) scale(34.2378 34.2173)">
<stop offset="0.09" stop-color="#FA8F21"/>
<stop offset="0.78" stop-color="#D82D7E"/>
</radialGradient>
<radialGradient id="paint1_radial_1583_4501" cx="0" cy="0" r="1" gradientUnits="userSpaceOnUse" gradientTransform="translate(15.9057 27.5098) scale(26.9841 26.968)">
<stop offset="0.64" stop-color="#8C3AAA" stop-opacity="0"/>
<stop offset="1" stop-color="#8C3AAA"/>
</radialGradient>
</defs>
</svg>
