<svg width="27" height="27" viewBox="0 0 27 27" fill="none" xmlns="http://www.w3.org/2000/svg">
<path d="M13.1138 26.2275C20.3563 26.2275 26.2275 20.3563 26.2275 13.1138C26.2275 5.87124 20.3563 0 13.1138 0C5.87124 0 0 5.87124 0 13.1138C0 20.3563 5.87124 26.2275 13.1138 26.2275Z" fill="#34AADF"/>
<path d="M5.62214 12.8264C5.62214 12.8264 12.118 10.0628 14.3709 9.08969C15.2346 8.70048 18.1633 7.45488 18.1633 7.45488C18.1633 7.45488 19.5151 6.90998 19.4024 8.23337C19.3649 8.77832 19.0645 10.6856 18.7641 12.7485C18.3135 15.6678 17.8254 18.8596 17.8254 18.8596C17.8254 18.8596 17.7503 19.7549 17.112 19.9105C16.4737 20.0662 15.4223 19.3656 15.2346 19.2099C15.0843 19.0932 12.4184 17.3416 11.4421 16.4852C11.1793 16.2517 10.8789 15.7846 11.4797 15.2397C12.8314 13.9552 14.446 12.3593 15.4223 11.3473C15.8729 10.8802 16.3234 9.79034 14.446 11.1137C11.7801 13.021 9.1517 14.8115 9.1517 14.8115C9.1517 14.8115 8.55091 15.2007 7.42447 14.8504C6.29797 14.5001 4.98378 14.033 4.98378 14.033C4.98378 14.033 4.08267 13.4492 5.62214 12.8264Z" fill="white"/>
</svg>
